<svg width="66" height="94" viewBox="0 0 66 94" fill="none" xmlns="http://www.w3.org/2000/svg">
<path d="M50.246 65.0457H15.9471V69.7583H50.246V65.0457Z" fill="#263238"/>
<path d="M50.3011 69.8181H15.8736V64.9905H50.2873L50.3011 69.8181ZM16.0023 69.7031H50.1816V65.1054H16.0023V69.7031Z" fill="#263238"/>
<path d="M19.1241 68.1905L24.0621 92.5445H42.3287L47.1011 69.7583L19.1241 68.1905Z" fill="#263238"/>
<path d="M19.1241 90.2411L21.7586 93.8641H43.9609L47.1011 90.2411H19.1241Z" fill="#455A64"/>
<path d="M31.8046 68.9031C31.7402 68.9031 31.6529 57.6204 31.6115 43.7031C31.5701 29.7859 31.6115 18.5031 31.6621 18.5031C31.7126 18.5031 31.8184 29.7859 31.8552 43.7031C31.892 57.6204 31.8736 68.9031 31.8046 68.9031Z" fill="#263238"/>
<path d="M39.446 40.6687C39.4244 40.759 39.3936 40.8468 39.354 40.9307L39.046 41.6618L38.8253 42.1859C38.7517 42.3836 38.6782 42.5997 38.5954 42.825C38.5126 43.0503 38.4253 43.2847 38.3287 43.5606C38.2322 43.8365 38.1678 44.1077 38.0759 44.3974C37.6697 45.7768 37.3503 47.1803 37.1195 48.5997C36.8508 50.3394 36.6727 52.092 36.5862 53.8503C36.4607 57.0497 36.5513 60.2539 36.8575 63.4411C36.9678 64.6641 37.0782 65.6572 37.1609 66.3376C37.1977 66.6595 37.2253 66.9215 37.2483 67.1284C37.2575 67.2201 37.2575 67.3126 37.2483 67.4043C37.2148 67.3171 37.1932 67.2259 37.1839 67.133C37.1517 66.9307 37.1057 66.6733 37.0506 66.3514C36.9402 65.671 36.8023 64.6824 36.6736 63.4595C36.3147 60.2652 36.1994 57.0482 36.3287 53.8365C36.4165 52.0699 36.6007 50.3094 36.8805 48.5629C37.1257 47.1366 37.4651 45.7282 37.8965 44.3468C37.9931 44.0572 38.0713 43.7721 38.1678 43.51C38.2644 43.248 38.3655 43.0089 38.4529 42.779L38.7011 42.1399L38.9448 41.6204L39.2942 40.9077C39.3335 40.8214 39.3845 40.7409 39.446 40.6687Z" fill="#263238"/>
<path d="M38.5678 31.5422C38.5446 31.67 38.5076 31.7949 38.4575 31.9146L38.1034 32.9629C38.0207 33.1928 37.9333 33.4457 37.8414 33.7215C37.7494 33.9974 37.6575 34.3039 37.5655 34.6411C37.3632 35.2939 37.1057 36.0204 36.9264 36.871L36.5816 38.1721C36.4759 38.6319 36.3701 39.0916 36.2598 39.602C36.0207 40.5813 35.846 41.648 35.6253 42.7652C35.2483 45.0043 34.9126 47.4825 34.7057 50.094C34.4988 52.7054 34.3977 55.2112 34.3655 57.4824C34.3333 59.7537 34.3655 61.8043 34.4805 63.5238C34.508 64.3836 34.5632 65.156 34.6092 65.8227C34.6552 66.4893 34.692 67.0916 34.7333 67.5698C34.7747 68.048 34.7977 68.3974 34.8161 68.6732C34.8283 68.8032 34.8283 68.9341 34.8161 69.0641C34.7859 68.9371 34.7659 68.808 34.7563 68.6779C34.7241 68.4066 34.6782 68.0388 34.6276 67.579C34.577 67.1192 34.5126 66.5123 34.4575 65.8319C34.4023 65.1514 34.3333 64.3744 34.292 63.533C34.177 61.8135 34.131 59.7583 34.1264 57.4824C34.1218 55.2066 34.2322 52.6962 34.4483 50.0756C34.6644 47.4549 35.023 44.9675 35.4138 42.7192C35.6391 41.602 35.823 40.5353 36.0713 39.5514C36.1862 39.0595 36.2966 38.5813 36.4069 38.1215L36.7655 36.8204C36.9862 35.9836 37.2253 35.2434 37.4414 34.5951L37.7402 33.6755C37.8414 33.4043 37.9379 33.156 38.0207 32.9261C38.1893 32.4939 38.3226 32.1491 38.4207 31.8916C38.46 31.7713 38.5092 31.6544 38.5678 31.5422Z" fill="#263238"/>
<path d="M29.6345 70.8985C29.6297 70.8542 29.6297 70.8095 29.6345 70.7652C29.6345 70.6641 29.6345 70.5399 29.6023 70.379C29.6023 70.0204 29.5425 69.5192 29.5011 68.8848C29.4184 67.5698 29.3034 65.6939 29.1563 63.3905C28.8621 58.7514 28.4299 52.356 27.6483 45.2893C27.2483 41.7675 26.7885 38.4204 26.3057 35.3859C26.0529 33.8687 25.8184 32.4296 25.5563 31.087C25.2942 29.7445 25.0552 28.4985 24.8161 27.3583C24.577 26.2181 24.3563 25.1974 24.1356 24.3008C23.9149 23.4043 23.7448 22.6273 23.5839 22.002C23.423 21.3767 23.3126 20.8985 23.2299 20.5445C23.1931 20.3928 23.1655 20.2641 23.1425 20.1675C23.1375 20.1232 23.1375 20.0785 23.1425 20.0342C23.1647 20.0727 23.1803 20.1146 23.1885 20.1583C23.2161 20.2595 23.2529 20.379 23.2988 20.5353L23.6988 21.979C23.8736 22.6043 24.0805 23.3583 24.2919 24.2778C24.5034 25.1974 24.7517 26.1951 25.0092 27.3307C25.2667 28.4664 25.5287 29.7123 25.777 31.0595C26.0253 32.4066 26.2919 33.8181 26.554 35.3583C27.046 38.3928 27.5149 41.7445 27.9333 45.271C28.7149 52.3284 29.1195 58.7468 29.3724 63.3859C29.4965 65.7077 29.5839 67.5882 29.6391 68.9031C29.6391 69.5376 29.6805 70.0388 29.6942 70.3974C29.6942 70.5583 29.6942 70.687 29.6942 70.7882C29.6798 70.8277 29.6597 70.8649 29.6345 70.8985Z" fill="#263238"/>
<path d="M31.5057 23.9376C31.3586 22.3376 29.7448 21.133 28.1356 21.1192C26.5264 21.1054 25.0368 22.0388 24.0529 23.3353C23.129 24.6528 22.4628 26.1333 22.0896 27.6985C21.0092 31.4641 20.4161 35.4181 20.8805 39.3077C21.3448 43.1974 22.9172 47.0319 25.7126 49.7813C26.1724 50.2411 26.7517 50.6732 27.377 50.5399C27.7246 50.4414 28.0392 50.2508 28.2874 49.9882C31.0222 47.4854 33.1896 44.4261 34.644 41.0161C36.0984 37.6061 36.8061 33.9243 36.7195 30.2181C36.6782 28.7376 36.4805 27.1974 35.6621 25.9652C34.8437 24.733 32.9356 23.4227 31.5241 23.9192" fill="#52DBCC"/>
<path d="M19.5517 11.1238L17.2759 15.202C17.2253 15.2985 17.1563 15.4043 17.046 15.4135C16.9356 15.4227 16.8391 15.3123 16.7747 15.2112C14.7793 12.146 12.787 9.08858 10.7977 6.03877L12.177 5.25716L19.5517 11.1238Z" fill="#52DBCC"/>
<g opacity="0.2">
<path d="M19.5517 11.1238L17.2759 15.202C17.2253 15.2985 17.1563 15.4043 17.046 15.4135C16.9356 15.4227 16.8391 15.3123 16.7747 15.2112C14.7793 12.146 12.787 9.08858 10.7977 6.03877L12.177 5.25716L19.5517 11.1238Z" fill="black"/>
</g>
<path d="M31.6621 18.5031L11.2759 6.46636C11.1378 6.42872 11.0144 6.35012 10.9218 6.24093C10.8293 6.13173 10.7721 5.99706 10.7577 5.85468C10.7432 5.71229 10.7723 5.56887 10.841 5.44333C10.9097 5.31779 11.0148 5.21602 11.1425 5.15143C12.5442 3.69615 14.2431 2.56008 16.1235 1.82062C18.0039 1.08116 20.0216 0.755689 22.0391 0.866366C24.0557 1.01084 26.0067 1.6444 27.7234 2.71225C29.4402 3.78011 30.8709 5.2501 31.8919 6.9951C33.8598 10.5123 33.9241 15.1606 31.6667 18.4893" fill="#52DBCC"/>
<path d="M14.2138 2.63187C14.3009 2.60944 14.3905 2.59862 14.4805 2.59968C14.6552 2.59968 14.9126 2.55831 15.2483 2.56291C16.1971 2.54946 17.1452 2.62333 18.0805 2.78359C21.1915 3.30896 24.0871 4.71375 26.4253 6.832C28.7636 8.95026 30.4467 11.6935 31.2759 14.7376C31.5301 15.6409 31.6994 16.566 31.7816 17.5008C31.8184 17.8365 31.8046 17.9192 31.8138 18.0985C31.7991 18.2621 31.7455 18.4197 31.6575 18.5583C31.7177 18.2183 31.7285 17.8715 31.6897 17.5284C31.5683 16.5953 31.3746 15.673 31.1103 14.7698C30.2556 11.7755 28.5786 9.08081 26.2698 6.99141C23.961 4.90201 21.1127 3.50161 18.0483 2.94911C17.1245 2.77466 16.1881 2.67472 15.2483 2.65027C14.5816 2.64107 14.2138 2.65486 14.2138 2.63187Z" fill="#263238"/>
<path d="M28.9034 10.1997C28.5791 10.3924 28.2335 10.5467 27.8736 10.6595C27.2253 10.9169 26.3149 11.2434 25.2988 11.579C24.2827 11.9146 23.354 12.1583 22.6736 12.3238C22.3136 12.4368 21.9418 12.5078 21.5655 12.5353C21.9059 12.3742 22.2618 12.2479 22.6276 12.1583L25.2253 11.3445L27.8276 10.5031C28.1751 10.3661 28.5355 10.2645 28.9034 10.1997Z" fill="#263238"/>
<path d="M25.6943 1.5744C25.9745 3.07896 26.0133 4.61855 25.8092 6.13532C25.7071 5.37354 25.6672 4.60473 25.6897 3.83647C25.6298 3.08357 25.6314 2.32705 25.6943 1.5744Z" fill="#263238"/>
<path d="M11.0965 6.24566C11.5732 6.02657 12.0687 5.85115 12.577 5.72153C13.4965 5.43647 14.7931 5.07785 16.2552 4.72843C17.7172 4.379 19.0138 4.11693 19.9609 3.95141C20.4717 3.83554 20.9917 3.76477 21.5149 3.73992C21.0176 3.90276 20.5089 4.02877 19.9931 4.11694C19.0736 4.32843 17.7448 4.62267 16.3149 4.9675C14.885 5.31233 13.5885 5.64796 12.6368 5.88704C12.1322 6.0418 11.6176 6.16162 11.0965 6.24566Z" fill="#263238"/>
<path d="M23.0644 20.4618C21.308 19.1284 19.4552 18.8664 17.2575 18.9537C15.0543 19.1009 12.898 19.6576 10.8988 20.5951C7.45976 22.1031 4.22758 24.3192 2.16321 27.4641C0.0988447 30.6089 -0.595408 34.7652 0.931028 38.1859C1.0484 38.5435 1.2941 38.8449 1.62068 39.0319C2.00355 39.1405 2.41256 39.1096 2.77471 38.9445C6.68275 37.6664 10.623 36.379 14.2184 34.3836C17.8138 32.3882 21.0873 29.6066 23.0138 25.9744C23.5079 25.1168 23.8209 24.167 23.9333 23.1836C23.9829 22.6906 23.9265 22.1927 23.7679 21.7232C23.6093 21.2538 23.3522 20.8237 23.0138 20.4618" fill="#52DBCC"/>
<path d="M23.0965 20.048C23.0079 20.0972 22.9137 20.1357 22.8161 20.1629L21.9977 20.4434L21.4046 20.6411C21.1885 20.7192 20.9448 20.8158 20.7103 20.9123C20.2138 21.11 19.6391 21.3123 19.0368 21.6066L18.0758 22.0434C17.7448 22.1951 17.4138 22.3836 17.0598 22.5629C16.3517 22.9123 15.6345 23.3583 14.8713 23.8089C13.2426 24.8339 11.6947 25.9821 10.2414 27.2434C8.80689 28.5197 7.47126 29.903 6.24596 31.3813C5.69884 32.0847 5.1655 32.7376 4.73332 33.3951C4.50803 33.7215 4.27355 34.0296 4.08504 34.3146L3.52872 35.2342C3.16091 35.7951 2.88964 36.3422 2.60918 36.8066C2.48504 37.0411 2.35631 37.2664 2.25516 37.4595C2.15401 37.6526 2.06665 37.8503 1.9839 38.0204C1.82298 38.3422 1.69884 38.5997 1.59769 38.7974C1.55828 38.8913 1.50896 38.9807 1.45056 39.0641C1.47304 38.9654 1.50699 38.8697 1.55171 38.779C1.64367 38.5721 1.75401 38.3192 1.89654 37.9836L2.14941 37.4089C2.24596 37.202 2.3655 36.9813 2.48964 36.7422C2.74252 36.2825 3.00459 35.7169 3.36321 35.1468L3.91033 34.2273C4.09884 33.9146 4.32872 33.602 4.54481 33.2709C4.977 32.6043 5.50573 31.9422 6.05286 31.2342C7.27409 29.7293 8.61485 28.3255 10.0621 27.0365C11.525 25.7661 13.0871 24.6145 14.7333 23.5928C15.5057 23.133 16.2322 22.7054 16.9494 22.3606C17.3034 22.1859 17.6391 21.9974 17.9793 21.8503L18.9494 21.4227C19.5609 21.1376 20.1448 20.9629 20.646 20.7606C20.8942 20.6687 21.1057 20.5813 21.3448 20.5077L21.9471 20.3284L22.7839 20.0939C22.8857 20.0652 22.9908 20.0498 23.0965 20.048Z" fill="#263238"/>
<path d="M9.3954 27.4641C8.00019 28.0035 6.57571 28.464 5.12873 28.8434C3.70674 29.3015 2.26093 29.6821 0.797699 29.9836C2.19379 29.4466 3.61812 28.9861 5.06437 28.6043C6.48636 28.1462 7.93216 27.7655 9.3954 27.4641Z" fill="#263238"/>
<path d="M9.22068 36.8801C9.14827 36.4411 9.11748 35.9962 9.12873 35.5514C9.12873 34.7284 9.10114 33.5928 9.12873 32.333C9.15632 31.0733 9.22988 29.9468 9.29885 29.1146C9.31256 28.6691 9.36798 28.2257 9.46436 27.7905C9.50697 28.2339 9.50697 28.6804 9.46436 29.1238C9.43678 30.0434 9.40459 31.1192 9.36781 32.3422C9.33103 33.5652 9.30804 34.6411 9.28505 35.5606C9.30506 36.0015 9.28351 36.4433 9.22068 36.8801Z" fill="#263238"/>
<path d="M17.2851 32.7698C17.2161 32.7698 17.0046 30.471 16.8253 27.6158C16.646 24.7606 16.5218 22.448 16.5908 22.4434C16.6598 22.4388 16.8713 24.7422 17.0506 27.602C17.2299 30.4618 17.354 32.7652 17.2851 32.7698Z" fill="#263238"/>
<path d="M7.24828 22.2227C7.70551 22.1628 8.16759 22.1489 8.62759 22.1813C9.47356 22.1813 10.6368 22.2089 11.9195 22.2503C13.2023 22.2916 14.3701 22.3468 15.2115 22.3974C15.6741 22.4007 16.1356 22.4438 16.5908 22.5261C16.1336 22.586 15.6715 22.5999 15.2115 22.5675C14.3701 22.5675 13.2023 22.5399 11.9149 22.4985C10.6276 22.4572 9.46897 22.402 8.62759 22.3514C8.16494 22.3489 7.7034 22.3058 7.24828 22.2227Z" fill="#263238"/>
<path d="M26.6046 50.3054C26.5831 50.2166 26.5723 50.1256 26.5724 50.0342C26.5724 49.8273 26.5724 49.5744 26.5402 49.248C26.508 48.5675 26.4988 47.579 26.5402 46.3606C26.5816 45.1422 26.646 43.6893 26.7931 42.0847C26.9402 40.4802 27.1793 38.7192 27.5103 36.8847C27.8414 35.0503 28.2414 33.3215 28.6552 31.7537C29.069 30.1859 29.5195 28.8066 29.9287 27.6526C30.3379 26.4985 30.6873 25.5744 30.9586 24.9445C31.0827 24.6503 31.1885 24.4112 31.2667 24.2227C31.3008 24.1365 31.3423 24.0534 31.3908 23.9744C31.3771 24.0664 31.3508 24.1562 31.3126 24.2411L31.046 24.9905C30.8069 25.625 30.4759 26.5583 30.0942 27.7169C29.7126 28.8756 29.2896 30.2595 28.8759 31.8181C28.4621 33.3767 28.0759 35.1008 27.7356 36.9261C27.3954 38.7514 27.1747 40.5077 27.0046 42.1077C26.8345 43.7077 26.7425 45.1514 26.7011 46.3652C26.6598 47.579 26.6322 48.5675 26.6322 49.248C26.6322 49.5698 26.6322 49.8273 26.6322 50.0342C26.634 50.1254 26.6248 50.2165 26.6046 50.3054Z" fill="#263238"/>
<path d="M27.6805 36.9583C27.4413 37.2834 27.1685 37.5824 26.8667 37.8503C26.3379 38.3744 25.5885 39.0825 24.7333 39.8319C23.8782 40.5813 23.0828 41.2112 22.4897 41.671C22.1865 41.9365 21.855 42.1678 21.5011 42.3606C21.7654 42.0574 22.0596 41.7817 22.3793 41.5376L24.5724 39.6342L26.7471 37.7307C27.031 37.442 27.3438 37.1832 27.6805 36.9583Z" fill="#263238"/>
<path d="M34.1356 42.1537C33.8144 41.7759 33.5238 41.3731 33.2667 40.9491L31.2529 38.0112L29.2069 35.1008C28.9001 34.7144 28.6248 34.3039 28.3839 33.8732C28.7388 34.2191 29.0619 34.5961 29.3494 34.9997C29.9149 35.7169 30.669 36.7284 31.469 37.8733C32.269 39.0181 32.9494 40.0801 33.4276 40.8618C33.6981 41.2726 33.9348 41.7047 34.1356 42.1537Z" fill="#263238"/>
<path d="M30.7517 25.8043C30.7885 25.8595 28.646 27.3031 25.9655 29.0227C23.285 30.7422 21.0782 32.0986 21.046 32.0434C21.0138 31.9882 23.1517 30.5399 25.8322 28.825C28.5126 27.11 30.7149 25.7491 30.7517 25.8043Z" fill="#263238"/>
<path d="M36.7977 32.3284C35.6624 31.3918 34.5803 30.3925 33.5563 29.3353C32.4746 28.3341 31.4478 27.275 30.4805 26.1629C31.6179 27.0988 32.7016 28.098 33.7264 29.156C34.806 30.158 35.8312 31.2169 36.7977 32.3284Z" fill="#263238"/>
<path d="M38.3195 32.2135L40.1586 32.0618C41.4645 31.9531 42.7316 31.5642 43.8736 30.9215C44.4318 30.5945 45.0108 30.3042 45.6069 30.0526C47.9057 29.133 50.4207 29.3031 52.8713 29.179C56.8814 28.9754 60.8101 27.9701 64.4253 26.2227C64.6369 26.1265 64.8125 25.9655 64.9264 25.7629C65.308 25.0733 64.6046 24.4618 64.0069 24.0893C60.908 22.1767 57.754 20.2457 54.2368 19.2939C50.7195 18.3422 46.7287 18.5077 43.7264 20.5721C40.2046 22.9951 38.9218 27.9744 38.3287 32.2089" fill="#52DBCC"/>
<path d="M64.9678 25.5284C64.8597 25.4917 64.7563 25.4424 64.6598 25.3813L63.7862 24.9215C63.0276 24.5215 61.9471 23.9376 60.5678 23.2755C58.9651 22.4886 57.2957 21.8455 55.5793 21.3537C53.4806 20.7519 51.2832 20.5737 49.1149 20.8296C46.9443 21.0725 44.8945 21.9542 43.2253 23.3629C41.9197 24.5756 40.8748 26.0414 40.154 27.6709C39.5103 29.0503 39.1103 30.2227 38.8207 31.0273C38.6828 31.4135 38.577 31.7215 38.4942 31.9468C38.4595 32.0557 38.4164 32.1617 38.3655 32.264C38.3804 32.1499 38.4066 32.0374 38.4437 31.9284C38.5172 31.6939 38.6138 31.3767 38.7287 30.9859C39.0851 29.8295 39.5088 28.695 39.9977 27.5882C40.7058 25.9222 41.7533 24.4221 43.0736 23.1836C44.7718 21.7347 46.8645 20.8269 49.0827 20.5767C51.283 20.3172 53.5131 20.5049 55.6391 21.1284C57.3637 21.6344 59.0381 22.2977 60.6414 23.11C62.0207 23.7951 63.0919 24.4066 63.8368 24.8296L64.6873 25.3261C64.7887 25.3819 64.8829 25.4499 64.9678 25.5284Z" fill="#263238"/>
<path d="M60.5494 27.9008C60.5126 27.9606 58.1034 26.402 55.1747 24.425C52.246 22.448 49.8965 20.802 49.9333 20.7468C49.9701 20.6916 52.3793 22.2457 55.3126 24.2227C58.246 26.1997 60.5862 27.8457 60.5494 27.9008Z" fill="#263238"/>
<path d="M57.9839 20.6181C57.418 20.8124 56.8257 20.9193 56.2276 20.9353C55.6349 21.0154 55.0336 21.0061 54.4437 20.9077C55.0271 20.8055 55.6171 20.7456 56.2092 20.7284C56.7972 20.6477 57.3904 20.6109 57.9839 20.6181Z" fill="#263238"/>
<path d="M47.446 19.2434C47.2461 19.6931 46.9795 20.1101 46.6552 20.4802C46.3789 20.906 46.0411 21.2887 45.6529 21.6158C45.8522 21.1672 46.1189 20.7517 46.4437 20.3836C46.7222 19.958 47.0596 19.5742 47.446 19.2434Z" fill="#263238"/>
<path d="M49.6023 29.3215C49.195 29.1528 48.8067 28.9417 48.4437 28.6916C47.7494 28.2687 46.8069 27.6526 45.8046 26.9215C44.8023 26.1905 43.9149 25.5054 43.2805 24.9997C42.9211 24.7456 42.5856 24.4594 42.2782 24.1445C42.6686 24.3469 43.0382 24.5871 43.3816 24.8618L45.9471 26.7238C46.9494 27.4503 47.869 28.1031 48.5356 28.5629C48.9129 28.7837 49.2699 29.0376 49.6023 29.3215Z" fill="#263238"/>
<path d="M41.0276 40.0296C39.2713 39.5698 37.1793 41.2756 36.8161 43.0549C36.4529 44.8342 37.1241 46.6549 37.9057 48.2916C39.5769 51.9658 42.059 55.2134 45.1655 57.7905C48.3057 60.2962 52.246 61.8962 56.2644 61.8778C55.5241 58.4296 56.4621 54.8296 56.0483 51.3261C55.6824 48.241 54.2809 45.3712 52.0728 43.1856C49.8647 41.0001 46.9807 39.6282 43.8919 39.2939C42.7701 39.1744 41.4736 38.9951 41.0276 40.0296Z" fill="#52DBCC"/>
<path d="M56.2644 61.8641C56.1766 61.8376 56.093 61.7989 56.0161 61.7491C55.7841 61.6151 55.5641 61.4613 55.3586 61.2893C54.6255 60.6535 54.0349 59.8702 53.6253 58.9905C53.3448 58.4434 53.0322 57.8549 52.7057 57.202C52.3793 56.5491 52.0943 55.8227 51.7632 55.1146C51.4217 54.3475 51.0348 53.6014 50.6046 52.8802C50.1285 52.1163 49.5936 51.3907 49.0046 50.71C47.8046 49.2985 46.5126 48.0756 45.3954 46.9123C44.3816 45.8926 43.4586 44.7865 42.6368 43.6066C42.0883 42.8074 41.6362 41.9463 41.2897 41.0411C41.1793 40.7146 41.0965 40.4618 41.0552 40.287C41.024 40.1997 41.0055 40.1084 41 40.0158C41.023 40.0158 41.1241 40.3744 41.377 41.0043C41.7443 41.8872 42.2068 42.7274 42.7563 43.51C43.5864 44.665 44.5089 45.7506 45.5149 46.756C46.6368 47.91 47.9379 49.1238 49.1517 50.5537C49.7466 51.2444 50.2862 51.9807 50.7655 52.756C51.2019 53.4856 51.5905 54.2427 51.9287 55.0227L52.8483 57.1146C53.1425 57.7675 53.4506 58.3652 53.7172 58.9077C54.1027 59.7855 54.661 60.5767 55.3586 61.2342C55.9333 61.6755 56.2782 61.8411 56.2644 61.8641Z" fill="#263238"/>
<path d="M47.1885 58.9997C47.1968 58.601 47.2508 58.2045 47.3494 57.8181C47.4828 57.0962 47.708 56.1031 48.0161 55.0227C48.3241 53.9422 48.646 52.9767 48.9034 52.287C49.015 51.9061 49.1692 51.539 49.3632 51.1928C49.2924 51.5847 49.1862 51.9695 49.046 52.3422C48.8299 53.0411 48.531 54.0112 48.2276 55.1008C47.9241 56.1905 47.6713 57.156 47.4919 57.8595C47.4242 58.2476 47.3227 58.6292 47.1885 58.9997Z" fill="#263238"/>
<path d="M55.9333 50.5399C55.5136 50.4807 55.0998 50.3853 54.6965 50.2549C53.9379 50.0572 52.8943 49.7951 51.731 49.5238C50.5678 49.2526 49.5103 49.0641 48.7425 48.9123C48.3218 48.8574 47.9065 48.7667 47.5011 48.6411C47.9265 48.6295 48.3519 48.6634 48.7701 48.7422C49.5471 48.8434 50.6092 49.0227 51.7862 49.2847C52.9632 49.5468 53.9977 49.8457 54.7425 50.0893C55.1547 50.1957 55.554 50.3468 55.9333 50.5399Z" fill="#263238"/>
<path d="M40.6736 52.9951C40.6894 52.5301 40.7525 52.068 40.8621 51.6158C41.0184 50.779 41.2621 49.625 41.5885 48.3652C41.9149 47.1054 42.269 45.9836 42.5448 45.1744C42.6669 44.7306 42.8349 44.3007 43.046 43.8916C42.9687 44.3445 42.8549 44.7904 42.7057 45.225C42.4759 46.0434 42.154 47.1744 41.8276 48.4434C41.5011 49.7123 41.2299 50.8388 41.0322 51.6618C40.948 52.115 40.8281 52.5608 40.6736 52.9951Z" fill="#263238"/>
<path d="M51.9057 43.1652C51.9057 43.2296 49.7034 43.0549 47.0092 42.7698C44.3149 42.4847 42.1356 42.1951 42.1402 42.1307C43.778 42.1804 45.4122 42.3124 47.0368 42.5261C48.6695 42.6572 50.2945 42.8705 51.9057 43.1652Z" fill="#263238"/>
<path d="M50.2965 69.7399C50.2965 69.8089 42.5954 69.8641 33.0919 69.8641C23.5885 69.8641 15.8736 69.8089 15.8736 69.7399C15.8736 69.6709 23.5747 69.6204 33.0781 69.6204C42.5816 69.6204 50.2965 69.6709 50.2965 69.7399Z" fill="#455A64"/>
<path d="M44.9402 79.6526C44.9402 79.7215 39.7494 79.7767 33.3494 79.7767C26.9494 79.7767 21.754 79.7215 21.754 79.6526C21.754 79.5836 26.9448 79.533 33.3494 79.533C39.754 79.533 44.9402 79.5698 44.9402 79.6526Z" fill="#455A64"/>
<path d="M44.7379 81.0732C44.7379 81.1376 39.6391 81.1928 33.3494 81.1928C27.0598 81.1928 21.9563 81.1376 21.9563 81.0732C21.9563 81.0089 27.0552 80.9491 33.3448 80.9491C39.6345 80.9491 44.7379 81.0043 44.7379 81.0732Z" fill="#455A64"/>
<path d="M45.1425 78.4848C45.1425 78.5537 39.7724 78.6089 33.1517 78.6089C26.531 78.6089 21.1609 78.5537 21.1609 78.4848C21.1609 78.4158 26.5264 78.3652 33.1517 78.3652C39.777 78.3652 45.1425 78.4158 45.1425 78.4848Z" fill="#455A64"/>
</svg>
