<svg width="211" height="174" viewBox="0 0 211 174" fill="none" xmlns="http://www.w3.org/2000/svg">
<path d="M203.91 0.103142H7.07356C5.44404 0.104361 3.88167 0.752537 2.72986 1.90522C1.57804 3.05789 0.93103 4.62074 0.93103 6.25027V145.28C0.93103 146.909 1.57819 148.472 2.73013 149.624C3.88208 150.776 5.44446 151.423 7.07356 151.423H82.6184C82.6184 151.423 87.423 166.282 72.5034 173.951H143.166C143.166 173.951 126.347 168.186 130.674 151.423H203.91C205.539 151.423 207.102 150.776 208.254 149.624C209.406 148.472 210.053 146.909 210.053 145.28V6.25027C210.053 4.62074 209.406 3.05789 208.254 1.90522C207.102 0.752537 205.54 0.104361 203.91 0.103142Z" fill="#455A64"/>
<path d="M107.129 136.802C109.809 140.627 105.616 144.82 101.791 142.14C101.662 142.052 101.55 141.941 101.46 141.813C98.7885 137.984 102.977 133.8 106.802 136.471C106.93 136.561 107.04 136.673 107.129 136.802Z" fill="#263238"/>
<path d="M8.77931 2.65027H202.205C202.79 2.65027 203.37 2.76563 203.911 2.98975C204.452 3.21387 204.944 3.54238 205.358 3.95651C205.772 4.37063 206.101 4.86228 206.325 5.40336C206.549 5.94445 206.664 6.52438 206.664 7.11004V126.007H4.31953V7.11004C4.31953 5.92724 4.7894 4.79287 5.62577 3.95651C6.46214 3.12014 7.5965 2.65027 8.77931 2.65027Z" fill="#FFAF49"/>
<path d="M168.72 151.441C168.72 151.505 140.71 151.561 106.163 151.561C71.6161 151.561 43.6069 151.505 43.6069 151.441C43.6069 151.377 71.6069 151.326 106.163 151.326C140.72 151.326 168.72 151.377 168.72 151.441Z" fill="#263238"/>
<path d="M182.857 6.63647H26.3655V122.007H182.857V6.63647Z" fill="#B3FFF4"/>
<path d="M183.092 122.236H26.1356V6.40659H183.092V122.236ZM26.6 121.777H182.632V6.86636H26.5954L26.6 121.777Z" fill="#263238"/>
<path d="M33.7402 11.8641C33.7402 12.0814 33.6758 12.2938 33.555 12.4745C33.4343 12.6552 33.2627 12.7961 33.0619 12.8793C32.8611 12.9624 32.6402 12.9842 32.427 12.9418C32.2139 12.8994 32.0181 12.7947 31.8644 12.6411C31.7107 12.4874 31.606 12.2916 31.5636 12.0784C31.5212 11.8653 31.543 11.6443 31.6262 11.4435C31.7093 11.2428 31.8502 11.0711 32.0309 10.9504C32.2116 10.8297 32.424 10.7652 32.6414 10.7652C32.9328 10.7652 33.2123 10.881 33.4184 11.0871C33.6245 11.2931 33.7402 11.5726 33.7402 11.8641Z" fill="#263238"/>
<path d="M35.9195 12.9629C36.5264 12.9629 37.0184 12.4709 37.0184 11.8641C37.0184 11.2572 36.5264 10.7652 35.9195 10.7652C35.3127 10.7652 34.8207 11.2572 34.8207 11.8641C34.8207 12.4709 35.3127 12.9629 35.9195 12.9629Z" fill="#263238"/>
<path d="M39.0368 12.9629C39.6437 12.9629 40.1356 12.4709 40.1356 11.8641C40.1356 11.2572 39.6437 10.7652 39.0368 10.7652C38.4299 10.7652 37.9379 11.2572 37.9379 11.8641C37.9379 12.4709 38.4299 12.9629 39.0368 12.9629Z" fill="#263238"/>
<path d="M114.053 19.3399L105.515 16.1951L97.0644 19.2985C95.9839 19.8227 95.0368 20.1353 95.0368 21.1652V26.3008C95.0193 29.8962 95.9826 33.4283 97.823 36.5169C99.6334 39.6045 102.347 42.0629 105.598 43.5606C109.055 42.4066 111.634 39.3399 113.207 36.7146C115.049 33.6265 116.012 30.0941 115.993 26.4985V21.9008C115.993 20.402 115.234 19.6848 114.053 19.3399Z" fill="#955DC7"/>
<g opacity="0.8">
<path d="M114.053 19.3399L105.515 16.1951L97.0644 19.2985C95.9839 19.8227 95.0368 20.1353 95.0368 21.1652V26.3008C95.0193 29.8962 95.9826 33.4283 97.823 36.5169C99.6334 39.6045 102.347 42.0629 105.598 43.5606C109.055 42.4066 111.634 39.3399 113.207 36.7146C115.049 33.6265 116.012 30.0941 115.993 26.4985V21.9008C115.993 20.402 115.234 19.6848 114.053 19.3399Z" fill="#B3FFF4"/>
</g>
<path d="M111.828 32.7146H109.929V22.3882C109.929 21.2188 109.464 20.0973 108.637 19.2704C107.81 18.4435 106.689 17.979 105.52 17.979C104.35 17.979 103.229 18.4435 102.402 19.2704C101.575 20.0973 101.11 21.2188 101.11 22.3882V32.7146H99.2115V22.3882C99.2115 20.7152 99.8761 19.1107 101.059 17.9277C102.242 16.7447 103.847 16.0802 105.52 16.0802C107.193 16.0802 108.797 16.7447 109.98 17.9277C111.163 19.1107 111.828 20.7152 111.828 22.3882V32.7146Z" fill="#955DC7"/>
<g opacity="0.4">
<path d="M111.828 32.7146H109.929V22.3882C109.929 21.2188 109.464 20.0973 108.637 19.2704C107.81 18.4435 106.689 17.979 105.52 17.979C104.35 17.979 103.229 18.4435 102.402 19.2704C101.575 20.0973 101.11 21.2188 101.11 22.3882V32.7146H99.2115V22.3882C99.2115 20.7152 99.8761 19.1107 101.059 17.9277C102.242 16.7447 103.847 16.0802 105.52 16.0802C107.193 16.0802 108.797 16.7447 109.98 17.9277C111.163 19.1107 111.828 20.7152 111.828 22.3882V32.7146Z" fill="black"/>
</g>
<path d="M111.34 28.1215H99.685C98.2098 28.1215 97.0138 29.3175 97.0138 30.7928V36.356C97.0138 37.8313 98.2098 39.0273 99.685 39.0273H111.34C112.816 39.0273 114.011 37.8313 114.011 36.356V30.7928C114.011 29.3175 112.816 28.1215 111.34 28.1215Z" fill="#955DC7"/>
<g opacity="0.5">
<path d="M106.936 32.1537C106.933 31.8899 106.858 31.6319 106.717 31.4087C106.576 31.1854 106.376 31.0058 106.139 30.8898C105.903 30.7738 105.638 30.7261 105.375 30.752C105.113 30.778 104.863 30.8765 104.653 31.0366C104.443 31.1967 104.282 31.412 104.188 31.6584C104.094 31.9049 104.07 32.1727 104.119 32.4318C104.169 32.691 104.289 32.9313 104.468 33.1258C104.646 33.3203 104.875 33.4613 105.129 33.533V35.6572H105.901V33.533C106.201 33.449 106.465 33.2683 106.653 33.019C106.84 32.7696 106.939 32.4654 106.936 32.1537Z" fill="black"/>
</g>
<path d="M97.9241 37.9928C97.8828 37.9928 97.8506 36.1767 97.8506 33.933C97.8506 31.6893 97.8828 29.8687 97.9241 29.8687C97.9655 29.8687 97.9931 31.7077 97.9931 33.933C97.9931 36.1583 97.9609 37.9928 97.9241 37.9928Z" fill="#FAFAFA"/>
<path d="M104.402 33.9744C104.402 33.9744 104.338 33.9514 104.237 33.8824C104.096 33.7756 103.972 33.6485 103.869 33.5054C103.692 33.2719 103.568 33.002 103.508 32.7152C103.447 32.4283 103.451 32.1316 103.519 31.8464C103.586 31.5611 103.716 31.2944 103.899 31.0654C104.082 30.8363 104.314 30.6506 104.577 30.5215C104.732 30.4389 104.9 30.3815 105.074 30.3514C105.193 30.3514 105.262 30.3514 105.262 30.3514C105.043 30.4214 104.831 30.5107 104.628 30.6181C104.386 30.7498 104.174 30.9309 104.007 31.1497C103.839 31.3685 103.72 31.6201 103.656 31.8881C103.592 32.1561 103.586 32.4345 103.637 32.7052C103.688 32.9759 103.795 33.2329 103.952 33.4595C104.088 33.6431 104.238 33.8153 104.402 33.9744Z" fill="#FAFAFA"/>
<path d="M91.4965 36.2916C91.8571 36.2916 92.1494 35.9993 92.1494 35.6388C92.1494 35.2782 91.8571 34.9859 91.4965 34.9859C91.136 34.9859 90.8437 35.2782 90.8437 35.6388C90.8437 35.9993 91.136 36.2916 91.4965 36.2916Z" fill="#955DC7"/>
<path d="M121.023 18.4893C121.023 18.6196 120.984 18.7469 120.912 18.8551C120.839 18.9633 120.736 19.0476 120.616 19.0972C120.496 19.1468 120.363 19.1596 120.236 19.1338C120.108 19.1081 119.991 19.045 119.899 18.9526C119.807 18.8602 119.745 18.7426 119.72 18.6148C119.695 18.4869 119.709 18.3546 119.759 18.2345C119.81 18.1145 119.895 18.0121 120.004 17.9404C120.112 17.8687 120.24 17.831 120.37 17.8319C120.544 17.8331 120.71 17.9029 120.832 18.0261C120.954 18.1492 121.023 18.3158 121.023 18.4893Z" fill="#955DC7"/>
<path d="M95.3816 41.7491C95.3804 41.7939 95.3622 41.8365 95.3305 41.8681C95.2988 41.8998 95.2562 41.9181 95.2115 41.9192C95.1672 41.918 95.1251 41.8996 95.0942 41.8678C95.0632 41.836 95.046 41.7935 95.046 41.7491C95.046 41.7274 95.0503 41.7059 95.0586 41.6858C95.0669 41.6657 95.0791 41.6474 95.0945 41.6321C95.1098 41.6167 95.1281 41.6045 95.1481 41.5962C95.1682 41.5879 95.1897 41.5836 95.2115 41.5836C95.2558 41.5836 95.2984 41.6009 95.3302 41.6318C95.362 41.6627 95.3804 41.7048 95.3816 41.7491Z" fill="#955DC7"/>
<path d="M95.3816 23.2388C95.3804 23.2831 95.362 23.3252 95.3302 23.3561C95.2984 23.387 95.2558 23.4043 95.2115 23.4043C95.1676 23.4043 95.1255 23.3868 95.0945 23.3558C95.0634 23.3248 95.046 23.2827 95.046 23.2388C95.046 23.1949 95.0634 23.1528 95.0945 23.1217C95.1255 23.0907 95.1676 23.0732 95.2115 23.0732C95.2558 23.0732 95.2984 23.0905 95.3302 23.1214C95.362 23.1524 95.3804 23.1945 95.3816 23.2388Z" fill="#955DC7"/>
<path d="M121.345 32.1537C121.345 32.1976 121.327 32.2397 121.296 32.2708C121.265 32.3018 121.223 32.3192 121.179 32.3192C121.135 32.3192 121.093 32.3018 121.062 32.2708C121.031 32.2397 121.014 32.1976 121.014 32.1537C121.014 32.1098 121.031 32.0677 121.062 32.0367C121.093 32.0056 121.135 31.9882 121.179 31.9882C121.223 31.9882 121.265 32.0056 121.296 32.0367C121.327 32.0677 121.345 32.1098 121.345 32.1537Z" fill="#955DC7"/>
<path d="M123.657 24.3974C123.657 24.4301 123.648 24.4621 123.63 24.4893C123.611 24.5166 123.586 24.5378 123.555 24.5503C123.525 24.5628 123.492 24.5661 123.46 24.5597C123.428 24.5533 123.398 24.5376 123.375 24.5144C123.352 24.4913 123.336 24.4618 123.33 24.4297C123.323 24.3976 123.327 24.3643 123.339 24.334C123.352 24.3038 123.373 24.278 123.4 24.2598C123.427 24.2416 123.459 24.2319 123.492 24.2319C123.514 24.2319 123.535 24.2362 123.555 24.2445C123.575 24.2528 123.594 24.265 123.609 24.2803C123.624 24.2957 123.637 24.314 123.645 24.334C123.653 24.3541 123.657 24.3757 123.657 24.3974Z" fill="#955DC7"/>
<path d="M164.986 58.0664C164.986 58.1307 137.952 58.1859 104.609 58.1859C71.2667 58.1859 44.2414 58.1307 44.2414 58.0664C44.2414 58.002 71.2575 57.9606 104.609 57.9606C137.961 57.9606 164.986 57.9974 164.986 58.0664Z" fill="#263238"/>
<path d="M138.738 64.2779C138.68 64.2848 138.621 64.2848 138.563 64.2779H138.048L136.057 64.3008L128.743 64.3376L104.609 64.3974L80.4713 64.3606L73.1563 64.3238L71.1655 64.3008H70.6506C70.5925 64.3078 70.5339 64.3078 70.4759 64.3008C70.5339 64.2949 70.5925 64.2949 70.6506 64.3008H71.1655L73.1563 64.2779L80.4713 64.2365L104.609 64.2043L128.743 64.2365L136.057 64.2779L138.048 64.3008H138.563C138.621 64.2872 138.679 64.2795 138.738 64.2779Z" fill="#263238"/>
<path d="M74.5586 69.7261H68.0069C66.397 69.7261 65.0919 71.0312 65.0919 72.6411V83.4733C65.0919 85.0831 66.397 86.3882 68.0069 86.3882H74.5586C76.1685 86.3882 77.4736 85.0831 77.4736 83.4733V72.6411C77.4736 71.0312 76.1685 69.7261 74.5586 69.7261Z" fill="#FFDDB0"/>
<path d="M91.2207 69.7261H84.669C83.0591 69.7261 81.754 71.0312 81.754 72.6411V83.4733C81.754 85.0831 83.0591 86.3882 84.669 86.3882H91.2207C92.8306 86.3882 94.1356 85.0831 94.1356 83.4733V72.6411C94.1356 71.0312 92.8306 69.7261 91.2207 69.7261Z" fill="#FFDDB0"/>
<path d="M107.883 69.7261H101.331C99.7212 69.7261 98.4161 71.0312 98.4161 72.6411V83.4733C98.4161 85.0831 99.7212 86.3882 101.331 86.3882H107.883C109.493 86.3882 110.798 85.0831 110.798 83.4733V72.6411C110.798 71.0312 109.493 69.7261 107.883 69.7261Z" fill="#FFDDB0"/>
<path d="M124.545 69.7261H117.993C116.383 69.7261 115.078 71.0312 115.078 72.6411V83.4733C115.078 85.0831 116.383 86.3882 117.993 86.3882H124.545C126.155 86.3882 127.46 85.0831 127.46 83.4733V72.6411C127.46 71.0312 126.155 69.7261 124.545 69.7261Z" fill="#FFDDB0"/>
<path d="M141.207 69.7261H134.655C133.045 69.7261 131.74 71.0312 131.74 72.6411V83.4733C131.74 85.0831 133.045 86.3882 134.655 86.3882H141.207C142.817 86.3882 144.122 85.0831 144.122 83.4733V72.6411C144.122 71.0312 142.817 69.7261 141.207 69.7261Z" fill="#FFDDB0"/>
<path d="M120.669 95.3215H87.9241C83.8233 95.3215 80.4988 98.6459 80.4988 102.747V103.193C80.4988 107.294 83.8233 110.618 87.9241 110.618H120.669C124.77 110.618 128.094 107.294 128.094 103.193V102.747C128.094 98.6459 124.77 95.3215 120.669 95.3215Z" fill="#038E83"/>
</svg>
