<svg width="58" height="159" viewBox="0 0 58 159" fill="none" xmlns="http://www.w3.org/2000/svg">
<path d="M45.4023 141.65L50.5563 150.846L56.7264 156.942C56.8323 157.046 56.9157 157.17 56.9714 157.307C57.027 157.444 57.0537 157.592 57.0498 157.74C57.046 157.888 57.0116 158.033 56.9488 158.168C56.886 158.302 56.7962 158.421 56.6851 158.519C56.556 158.634 56.4014 158.715 56.2342 158.758C56.067 158.8 55.8921 158.802 55.7241 158.763C53.554 158.253 45.5816 156.335 45.2414 155.641C44.8506 154.836 39.1632 146.303 39.1632 146.303L45.4023 141.65Z" fill="#E54304"/>
<g opacity="0.6">
<path d="M56.6851 158.51L44.8966 155.02L45.1218 155.407C45.3188 155.738 45.6267 155.989 45.9908 156.115C46.9655 156.455 49.669 157.324 55.7104 158.772C55.884 158.813 56.065 158.811 56.2374 158.765C56.4098 158.719 56.5683 158.632 56.6988 158.51H56.6851Z" fill="white"/>
</g>
<g opacity="0.6">
<path d="M45.0161 150.993C45.1759 151.01 45.324 151.084 45.4324 151.203C45.5409 151.322 45.6021 151.476 45.6046 151.636C45.5951 151.797 45.5238 151.949 45.4056 152.058C45.2874 152.168 45.1313 152.228 44.9701 152.225C44.8002 152.208 44.6427 152.128 44.528 152.002C44.4134 151.875 44.3497 151.711 44.3494 151.54C44.3777 151.374 44.4691 151.225 44.6045 151.125C44.7399 151.025 44.9088 150.981 45.0759 151.002" fill="white"/>
</g>
<path d="M52.2529 155.77C52.3031 155.357 52.431 154.958 52.6299 154.593C52.8821 154.266 53.1941 153.99 53.5494 153.779C53.5494 153.751 53.3885 153.747 53.1586 153.843C52.8588 153.976 52.6046 154.193 52.4276 154.469C52.2486 154.742 52.1513 155.061 52.1471 155.388C52.1747 155.632 52.2529 155.774 52.2529 155.77Z" fill="#263238"/>
<path d="M53.6322 156.602C53.6966 156.602 53.8161 156.142 54.2023 155.738C54.5885 155.333 55.0437 155.168 55.0253 155.103C55.0069 155.039 54.4736 155.103 54.0322 155.563C53.5908 156.023 53.5678 156.607 53.6322 156.602Z" fill="#263238"/>
<path d="M50.1425 154.924C50.3726 154.445 50.6385 153.984 50.9379 153.545C51.2977 153.147 51.6849 152.775 52.0965 152.432C51.5488 152.587 51.0734 152.931 50.754 153.402C50.3761 153.821 50.1593 154.36 50.1425 154.924Z" fill="#263238"/>
<path d="M48.3448 152.257C48.4 152.299 48.777 151.797 49.4161 151.384C50.0552 150.97 50.6621 150.827 50.6483 150.758C50.1517 150.734 49.6626 150.887 49.269 151.191C48.8452 151.426 48.518 151.804 48.3448 152.257Z" fill="#263238"/>
<path d="M46.7632 149.6C47.0816 149.237 47.4482 148.92 47.8529 148.657C48.2922 148.46 48.7562 148.322 49.2322 148.248C49.2322 148.22 49.0713 148.165 48.7724 148.17C48.4037 148.179 48.0426 148.277 47.7196 148.455C47.3968 148.631 47.1197 148.879 46.9104 149.181C46.7816 149.416 46.7356 149.586 46.7632 149.6Z" fill="#263238"/>
<path d="M47.5402 148.161C47.5022 148.031 47.4363 147.912 47.3471 147.811C47.1335 147.513 46.8613 147.261 46.5472 147.071C46.3283 146.912 46.0637 146.828 45.7931 146.832C45.7052 146.846 45.6233 146.885 45.5571 146.944C45.491 147.004 45.4436 147.082 45.4207 147.168C45.3923 147.338 45.4283 147.514 45.5218 147.659C45.7221 147.952 46.018 148.166 46.3586 148.264C46.6992 148.362 47.0633 148.338 47.3885 148.197C47.707 148.05 47.9748 147.811 48.1581 147.512C48.3413 147.212 48.4319 146.865 48.4184 146.515C48.4143 146.426 48.3913 146.339 48.3508 146.259C48.3104 146.18 48.2535 146.11 48.1839 146.055C48.1075 146.007 48.018 145.985 47.9282 145.991C47.8384 145.996 47.7525 146.03 47.6828 146.087C47.4901 146.27 47.3476 146.5 47.269 146.754C47.1373 147.094 47.0687 147.455 47.0667 147.82C47.0537 147.955 47.0694 148.092 47.1127 148.22C47.1441 147.739 47.248 147.264 47.4207 146.813C47.4976 146.595 47.6271 146.4 47.7977 146.243C47.8365 146.213 47.8842 146.197 47.9333 146.197C47.9825 146.197 48.0302 146.213 48.069 146.243C48.112 146.282 48.1461 146.33 48.1691 146.383C48.1921 146.436 48.2034 146.494 48.2023 146.551C48.2052 146.856 48.1199 147.155 47.9567 147.412C47.7935 147.669 47.5595 147.873 47.2828 148C47.007 148.118 46.6995 148.139 46.41 148.061C46.1205 147.982 45.8659 147.808 45.6874 147.568C45.6223 147.465 45.5931 147.344 45.6046 147.223C45.6155 147.175 45.6407 147.132 45.6769 147.099C45.7131 147.066 45.7584 147.045 45.8069 147.039C46.0356 147.035 46.26 147.101 46.4506 147.227C46.8646 147.474 47.2331 147.789 47.5402 148.161Z" fill="#263238"/>
<path d="M33.7793 144.556L31.6828 152.092C31.6828 152.092 38.6437 156.754 38.3908 158.202L23.6322 154.666L26.3908 142.786L33.7793 144.556Z" fill="#E54304"/>
<g opacity="0.6">
<path d="M27.2736 150.358C27.1215 150.369 26.9785 150.435 26.8711 150.543C26.7638 150.651 26.6993 150.795 26.6897 150.947C26.6931 151.1 26.7551 151.246 26.8629 151.354C26.9707 151.463 27.116 151.526 27.269 151.531C27.4302 151.521 27.5819 151.451 27.6949 151.336C27.8078 151.22 27.8739 151.067 27.8805 150.905C27.8619 150.746 27.7817 150.601 27.6571 150.5C27.5324 150.4 27.3732 150.352 27.2138 150.367" fill="white"/>
</g>
<g opacity="0.6">
<path d="M23.6322 154.648L23.9586 153.462L38 157.282C38 157.282 38.5885 157.742 38.4 158.17L23.6322 154.648Z" fill="white"/>
</g>
<path d="M31.9402 152.073C31.9402 152.147 31.554 152.073 31.1448 152.239C30.7356 152.404 30.4736 152.643 30.4138 152.602C30.354 152.561 30.5609 152.165 31.0621 151.995C31.5632 151.825 31.9724 152.013 31.9402 152.073Z" fill="#263238"/>
<path d="M33.3379 153.085C33.3379 153.158 32.9931 153.209 32.6759 153.453C32.3586 153.696 32.2161 154.004 32.1425 153.986C32.069 153.967 32.1425 153.526 32.5241 153.246C32.9058 152.965 33.3517 153.016 33.3379 153.085Z" fill="#263238"/>
<path d="M33.7747 155.149C33.7058 155.149 33.692 154.763 33.9678 154.413C34.2437 154.064 34.6253 153.986 34.6391 154.055C34.6529 154.124 34.3954 154.285 34.1793 154.574C33.9632 154.864 33.8621 155.158 33.7747 155.149Z" fill="#263238"/>
<path d="M32.2299 150.303C32.1839 150.363 31.8759 150.184 31.4621 150.115C31.0483 150.046 30.6989 150.115 30.6759 150.027C30.6529 149.94 31.0207 149.77 31.5081 149.862C31.9954 149.954 32.2759 150.257 32.2299 150.303Z" fill="#263238"/>
<g opacity="0.3">
<path d="M33.3609 146.046L32.9885 147.393L25.7517 145.586L26.115 144.023L33.3609 146.046Z" fill="black"/>
</g>
<path d="M32.6207 148.777C32.3636 148.781 32.1098 148.718 31.8851 148.593C31.6289 148.483 31.3879 148.341 31.1678 148.17C31.0359 148.07 30.9114 147.961 30.7954 147.843C30.7247 147.778 30.6642 147.702 30.6161 147.618C30.5795 147.556 30.5655 147.483 30.5764 147.412C30.5873 147.341 30.6224 147.276 30.6759 147.227C30.7235 147.185 30.7804 147.155 30.8419 147.139C30.9034 147.123 30.9678 147.122 31.0299 147.135C31.1233 147.158 31.213 147.194 31.2965 147.241C31.4459 147.316 31.5876 147.405 31.7196 147.508C31.9418 147.68 32.1358 147.887 32.2943 148.119C32.4605 148.319 32.5616 148.564 32.5839 148.823C32.5471 148.823 32.4322 148.574 32.1241 148.23C31.9573 148.03 31.7657 147.852 31.554 147.701C31.43 147.613 31.2994 147.534 31.1632 147.466C31.0161 147.388 30.8828 147.356 30.8276 147.416C30.7724 147.476 30.8 147.448 30.8276 147.503C30.8643 147.564 30.9091 147.62 30.9609 147.669C31.0713 147.784 31.1862 147.889 31.2965 147.986C31.4993 148.157 31.7162 148.311 31.9448 148.446C32.3586 148.653 32.6345 148.735 32.6207 148.777Z" fill="#263238"/>
<path d="M32.5058 148.855C32.4152 148.608 32.4071 148.339 32.4828 148.087C32.5384 147.811 32.6378 147.546 32.777 147.301C32.8623 147.156 32.9624 147.02 33.0759 146.896C33.1388 146.808 33.2237 146.738 33.3221 146.693C33.4205 146.648 33.529 146.629 33.6368 146.639C33.7022 146.656 33.7614 146.691 33.8071 146.741C33.8528 146.791 33.8831 146.853 33.8943 146.919C33.9075 147.014 33.9075 147.11 33.8943 147.204C33.8795 147.376 33.8393 147.545 33.7747 147.705C33.6677 147.972 33.4954 148.208 33.2736 148.39C32.8966 148.708 32.5747 148.722 32.5747 148.694C32.5747 148.666 32.8414 148.574 33.1494 148.257C33.3312 148.078 33.4696 147.859 33.554 147.618C33.6025 147.48 33.6319 147.336 33.6414 147.19C33.6414 147.025 33.6414 146.887 33.5632 146.887C33.4851 146.887 33.3379 146.956 33.246 147.066C33.1444 147.178 33.0521 147.298 32.9701 147.425C32.8313 147.644 32.723 147.88 32.6483 148.128C32.5333 148.547 32.5471 148.855 32.5058 148.855Z" fill="#263238"/>
<path d="M36.5609 61.5813C36.5609 61.5813 41.5908 70.3675 41.8667 80.1008C42.1425 89.8342 35.0253 150.211 35.0253 150.211L23.7471 147.453C23.5402 149.393 27.2828 127.604 28.6069 117.108C29.908 106.781 23.3655 69.5215 23.3655 69.5215L35.7011 61.5813" fill="#263238"/>
<path d="M10.7908 68.9422C10.7908 68.9422 9.56783 79.3928 12.6299 86.4135C15.692 93.4342 40.2161 151.356 40.2161 151.356L50.2805 146.248L25.7058 69.0066L10.7908 68.9422Z" fill="#263238"/>
<path d="M41.1402 117.489C41.0759 117.512 37.9816 108.184 34.2437 96.6617C30.5058 85.1399 27.4897 75.779 27.554 75.756C27.6184 75.733 30.7127 85.0617 34.4506 96.5882C38.1885 108.115 41.2184 117.471 41.1402 117.489Z" fill="#455A64"/>
<path d="M40.2391 151.338C40.1793 151.365 35.2873 139.954 29.3103 125.857C23.3333 111.761 18.5379 100.303 18.5977 100.271C18.6575 100.239 23.554 111.65 29.531 125.756C35.508 139.862 40.2988 151.305 40.2391 151.338Z" fill="#455A64"/>
<path d="M22.2069 4.979C20.7402 1.91693 16.0966 0.1652 12.2529 1.07555C9.03448 1.83876 5.50805 4.98359 5.18621 8.30313C4.72644 13.1123 7.24598 18.11 5.55402 22.648C3.58161 27.9261 0.887359 26.1882 1.07587 33.8434C1.13564 36.1422 2.02759 41.802 3.14943 43.825C3.72415 44.8686 4.62989 45.848 5.8207 46.0732C7.30575 46.3491 9.34712 46.6434 10.5517 45.7468C13.7977 43.3192 16.8184 42.9882 17.6322 39.0388C18.8368 33.2227 14.9563 26.0962 15.1218 21.3698C15.2874 16.6434 14.5563 11.9445 13.8207 7.26865" fill="#263238"/>
<path d="M39.1678 31.848C38.2483 29.7652 36.4092 28.2388 34.5058 26.9514C32.6023 25.6641 30.5977 24.5238 28.9885 22.887C27.3793 21.2503 26.2713 17.5307 26.2299 14.7997C26.2023 14.0457 26.1471 13.3054 26.0506 12.5744C25.6828 9.89394 25.131 7.1675 23.6506 4.87325C22.1701 2.57899 18.3264 0.441068 14.9149 1.7744L13.1954 3.99049C15.0794 11.212 15.6786 18.7086 14.9655 26.1376C14.7586 28.2847 14.5058 30.6893 15.8851 32.3859C16.7724 33.4939 18.1839 34.0595 19.5954 34.3353C21.1494 34.6434 22.9103 34.602 24.1425 33.6227C24.2173 33.5648 24.2974 33.514 24.3816 33.471C24.6594 34.2916 25.0813 35.056 25.6276 35.7284C27.0069 37.356 29.1127 38.1376 31.1448 38.7031C33.4897 39.3514 36.2713 39.7192 38.1333 38.1514C39.908 36.6755 40.1103 33.9307 39.1678 31.848Z" fill="#263238"/>
<path d="M9.98162 26.0687C9.98162 26.0687 4.51037 28.4135 3.20922 29.3238C1.90807 30.2342 8.54714 48.602 8.54714 48.602C8.54714 48.602 11.6736 56.156 10.892 59.5399C10.4322 61.448 9.64139 63.4801 9.29197 65.2411C9.11959 66.1119 9.29829 67.0156 9.78914 67.7554C10.28 68.4951 11.0432 69.0109 11.9127 69.1905C15.1311 69.8572 21.3425 70.6709 26.6253 68.6572C29.8166 67.4989 32.837 65.9153 35.6046 63.9491C36.2791 63.4511 36.7434 62.7193 36.9067 61.897C37.07 61.0747 36.9204 60.221 36.4874 59.5031C36.1016 58.8618 35.6384 58.2704 35.1081 57.7422C33.315 55.9491 31.715 48.956 31.3012 47.0342C31.2339 46.7186 31.2122 46.395 31.2368 46.0732C31.3793 44.2342 31.7977 37.5399 30.6805 34.2985C29.7609 31.7054 27.9218 28.6296 26.8736 26.9422C26.6245 26.5528 26.2981 26.2188 25.9145 25.961C25.5309 25.7031 25.0983 25.5269 24.6437 25.4434L20.2805 24.6434C19.9031 24.579 19.5176 24.579 19.1402 24.6434L9.97242 26.0962L9.98162 26.0687Z" fill="#955DC7"/>
<g opacity="0.3">
<path d="M11.154 58.8365L10.1793 62.0549C10.1793 62.0549 16.8874 59.7928 19.0483 57.2503C21.2092 54.7077 23.3471 52.8043 24.3494 52.6939C25.3517 52.5836 29.6828 52.579 30.4414 53.1859C31.2 53.7928 33.7609 55.4204 33.7609 55.4204L32.5839 52.0411L29.7241 49.7744L21.1586 48.887L11.154 58.8365Z" fill="black"/>
</g>
<path d="M3.20921 29.3238C3.20921 29.3238 1.0299 30.8824 1.0299 34.7905C1.0299 34.7905 1.22758 52.6893 1.83907 56.1376C2.65286 60.7353 6.35861 61.287 8.27585 61.287C10.1931 61.287 20.5655 52.8595 20.5655 52.8595L17.3839 48.0732L9.8207 50.0411C9.8207 50.0411 9.50806 42.6847 9.50806 40.1652C9.50806 37.6457 3.20921 29.3238 3.20921 29.3238Z" fill="#955DC7"/>
<path d="M25.1724 25.5767C25.1724 25.5767 29.9908 26.7123 31.9126 30.8962C33.6 34.5744 44.1793 51.0663 38.7172 54.1054C34.7816 56.3031 29.7241 51.2457 29.7241 51.2457L25.1724 25.5767Z" fill="#955DC7"/>
<path d="M32.5839 46.3169C32.2854 45.5597 32.1295 44.7538 32.1241 43.9399C32.1472 43.4493 32.0882 42.9582 31.9494 42.487C31.8724 42.2457 31.7159 42.0376 31.5056 41.8965C31.2952 41.7555 31.0433 41.6897 30.7908 41.71L30.6161 45.3008L32.5839 46.3169Z" fill="#936754"/>
<path d="M30.9563 38.202L30.354 50.8962L24.2529 51.4893L24.1149 39.048C24.1142 38.8894 24.1704 38.7357 24.2733 38.6151C24.3763 38.4944 24.5191 38.4147 24.6759 38.3905L30.1931 37.5215C30.2897 37.5065 30.3884 37.5131 30.4822 37.5408C30.5759 37.5684 30.6624 37.6165 30.7354 37.6816C30.8083 37.7466 30.866 37.827 30.9042 37.917C30.9424 38.007 30.9602 38.1043 30.9563 38.202Z" fill="#263238"/>
<path d="M24.6667 42.4732C24.6877 42.3502 24.6985 42.2256 24.6989 42.1008C24.6989 41.8342 24.7264 41.4893 24.7448 41.071C24.7632 40.6526 24.777 40.1146 24.8 39.5491C24.7952 39.4802 24.7952 39.4111 24.8 39.3422C24.8123 39.2793 24.8408 39.2206 24.8827 39.1721C24.9242 39.1211 24.978 39.0815 25.0391 39.0572C25.109 39.0332 25.1816 39.0178 25.2552 39.0112L26.2069 38.8549C27.5126 38.6434 28.6943 38.4411 29.5494 38.2893L30.5609 38.1008C30.6857 38.0838 30.8087 38.0561 30.9287 38.0181C30.8022 38.0187 30.676 38.031 30.5517 38.0549L29.5356 38.202C28.6759 38.3307 27.4943 38.5146 26.1885 38.7307L25.2322 38.887C25.1506 38.8959 25.0704 38.9144 24.9931 38.9422C24.9128 38.9729 24.8427 39.0254 24.7908 39.0939C24.7355 39.1579 24.6989 39.2358 24.6851 39.3192C24.6787 39.3942 24.6787 39.4695 24.6851 39.5445C24.6851 40.1146 24.6851 40.6296 24.6851 41.071C24.6851 41.5123 24.6851 41.8296 24.6851 42.0962C24.6671 42.2211 24.661 42.3473 24.6667 42.4732Z" fill="#455A64"/>
<path d="M27.4712 39.2824C27.4854 39.2176 27.5205 39.1593 27.571 39.1163C27.6215 39.0733 27.6847 39.048 27.751 39.0444C27.8172 39.0407 27.8828 39.0589 27.9378 39.0961C27.9927 39.1333 28.0339 39.1874 28.0552 39.2503C28.0687 39.3114 28.0652 39.375 28.0449 39.4342C28.0246 39.4935 27.9884 39.5459 27.9402 39.5859C27.8886 39.6207 27.8278 39.6393 27.7655 39.6393C27.7033 39.6393 27.6424 39.6207 27.5908 39.5859C27.5417 39.5541 27.5038 39.5077 27.4824 39.4533C27.461 39.3989 27.457 39.3392 27.4712 39.2824Z" fill="#FAFAFA"/>
<path d="M28.2253 42.9652C28.3724 42.9652 31.8299 44.1192 31.8299 44.1192L33.7747 45.6135C34.2872 46.3721 34.4773 47.3032 34.3035 48.202C34.0644 49.871 33.3563 50.556 31.5908 51.3008H28.0322L26.046 50.156C25.8547 50.0442 25.7016 49.8773 25.6065 49.6773C25.5114 49.4772 25.4787 49.2531 25.5127 49.0342V48.9606L25.2598 48.6572C25.1817 48.5656 25.1325 48.4529 25.1186 48.3334C25.1047 48.2139 25.1266 48.0929 25.1816 47.9859C25.2562 47.8422 25.3847 47.7338 25.5389 47.6847C25.6932 47.6356 25.8607 47.6497 26.0046 47.7238L28.2161 48.8549L29.5954 48.8181L29.7288 48.3583L27.5678 47.6411L24.7172 46.0779C24.6276 46.0293 24.5487 45.9628 24.4856 45.8827C24.4225 45.8026 24.3764 45.7104 24.3501 45.6119C24.3239 45.5133 24.318 45.4104 24.3329 45.3095C24.3478 45.2086 24.3832 45.1117 24.4368 45.025C24.528 44.8722 24.6706 44.7568 24.8391 44.6995C25.0075 44.6423 25.1909 44.6468 25.3563 44.7123L27.9356 45.7238L30.5701 46.4227L30.0276 45.5031L26.8092 43.8158C26.8092 43.8158 26.423 42.7997 28.2253 42.9652Z" fill="#936754"/>
<path d="M27.6552 41.3284C27.3525 41.2561 27.0377 41.2507 26.7328 41.3127C26.4279 41.3746 26.1401 41.5024 25.8896 41.687C24.8552 42.3169 23.5586 43.2319 23.5586 43.2319L21.531 44.179L21.7011 43.6181C21.7011 43.6181 23.8253 43.4985 23.4851 41.9905L22.2299 42.2434L21.0621 41.8618L19.2598 44.2709L18.8 46.9468L17.6552 48.2526L20.1655 52.1376L23.5448 50.8457L26.5885 50.5468L27.9126 49.0755L27.8345 47.4893L29.0851 45.7376C29.0851 45.7376 29.1494 44.9468 28.4552 44.9836C27.7609 45.0204 26.3632 46.9192 26.3632 46.9192L24.7126 47.2227C24.7126 47.2227 24.3862 47.0066 24.5977 46.8227C24.8092 46.6388 29.3103 43.4664 29.4391 42.8962C29.5678 42.3261 29.7379 41.9353 29.2276 41.8618C28.7839 41.8668 28.3482 41.9805 27.9586 42.1928C27.9586 42.1928 28.0414 41.3836 27.6552 41.3284Z" fill="#936754"/>
<path d="M24.092 44.9652C24.787 44.5412 25.4592 44.0808 26.1058 43.5859C26.7789 43.1345 27.4266 42.6464 28.046 42.1238C27.3517 42.5491 26.6796 43.0095 26.0322 43.5031C25.3591 43.9545 24.7114 44.4426 24.092 44.9652Z" fill="#7C5142"/>
<path d="M23.7471 49.0204C23.8324 49.0453 23.9204 49.0592 24.0092 49.0618C24.1793 49.0618 24.423 49.0985 24.7264 49.1031C25.0859 49.1145 25.4455 49.0836 25.7977 49.0112C26.2324 48.9172 26.6417 48.7305 26.9977 48.4641C27.6285 47.9672 28.1445 47.3398 28.5103 46.625C28.6575 46.3583 28.7632 46.1376 28.8368 45.9859C28.882 45.9099 28.9161 45.8279 28.9379 45.7422C28.9379 45.7422 28.7402 46.0595 28.4322 46.579C28.0505 47.2649 27.5382 47.8694 26.9241 48.3583C26.5792 48.6118 26.1867 48.7932 25.7701 48.8916C25.427 48.9657 25.0774 49.0057 24.7264 49.0112C24.1012 49.0204 23.7471 48.9974 23.7471 49.0204Z" fill="#7C5142"/>
<path d="M17.6322 48.248L17.7149 48.1698L17.9356 47.9215L18.7954 46.956L19.2873 44.2893L21.0988 41.8847H21.0437L22.2161 42.2755H22.2391L23.4943 42.0227L23.4345 41.9859C23.4822 42.1942 23.4743 42.4115 23.4115 42.6158C23.3315 42.8204 23.1922 42.9965 23.0115 43.1215C22.6157 43.3701 22.1632 43.5141 21.6965 43.5399H21.6552V43.5767C21.6046 43.7514 21.5448 43.9445 21.4851 44.1422L21.4483 44.2617L21.5632 44.2112L23.5908 43.2687C24.1931 42.8503 24.823 42.4227 25.4759 42.0043C25.7928 41.7816 26.1336 41.595 26.4919 41.448C26.8555 41.308 27.2529 41.2808 27.6322 41.3698C27.7517 41.3698 27.8253 41.5261 27.8529 41.6778C27.8759 41.8379 27.8759 42.0005 27.8529 42.1606V42.2755L27.9586 42.225C28.1786 42.1125 28.4098 42.0231 28.6483 41.9583C28.8794 41.8802 29.1298 41.8802 29.3609 41.9583C29.4074 41.9846 29.4441 42.0253 29.4656 42.0741C29.4872 42.123 29.4923 42.1775 29.4804 42.2296C29.4705 42.3573 29.4474 42.4836 29.4115 42.6066C29.3935 42.7296 29.3563 42.8491 29.3012 42.9606C29.2228 43.0621 29.1367 43.1574 29.0437 43.2457C28.2603 43.9546 27.4391 44.6207 26.5839 45.2411L25.3471 46.1606L24.7356 46.6204L24.5839 46.7307C24.5196 46.7718 24.4711 46.8334 24.446 46.9054C24.4361 46.9446 24.436 46.9857 24.4456 47.0249C24.4553 47.0642 24.4743 47.1005 24.5012 47.1307C24.5411 47.1884 24.5928 47.237 24.6529 47.2732H24.6759L26.3264 46.9698H26.3494C26.7576 46.4153 27.2197 45.9024 27.7287 45.4388C27.9816 45.2319 28.2575 45.0066 28.5609 45.0618C28.6328 45.0726 28.7012 45.1003 28.7604 45.1426C28.8195 45.185 28.8678 45.2408 28.9012 45.3054C28.9663 45.4494 28.9932 45.6078 28.9793 45.7652V45.7376C28.5195 46.3491 28.1287 46.9284 27.7333 47.4893C27.7609 48.0411 27.7885 48.5698 27.8161 49.0801V49.0434L26.4965 50.5146H26.5241L23.4804 50.8273L20.9839 51.7928L20.3356 52.0503L20.1701 52.1192C20.1333 52.1192 20.1149 52.1192 20.1149 52.1468H20.1701L20.3402 52.087L20.9977 51.848L23.508 50.9054L26.5517 50.6158L27.8805 49.1491C27.8805 48.6388 27.8299 48.11 27.8023 47.5583V47.5905L29.0529 45.8434C29.0635 45.6713 29.032 45.4993 28.9609 45.3422C28.9185 45.264 28.8606 45.1951 28.7908 45.1399C28.7171 45.0872 28.6321 45.0526 28.5425 45.0388C28.3643 45.0117 28.1823 45.0475 28.0276 45.1399C27.8793 45.2243 27.7405 45.3245 27.6138 45.4388C27.1027 45.9072 26.6405 46.4263 26.2345 46.9882L26.2713 46.9606L24.6253 47.2641H24.6667C24.5793 47.2043 24.4919 47.0985 24.5149 47.0296C24.5379 46.9606 24.6667 46.887 24.7586 46.8135L25.3701 46.3537L26.6115 45.4342C27.4708 44.8101 28.2965 44.141 29.085 43.4296C29.1847 43.3354 29.2755 43.2323 29.3563 43.1215C29.3982 43.0609 29.4264 42.9918 29.4391 42.9192L29.485 42.7307C29.5213 42.5998 29.546 42.466 29.5586 42.3307C29.5662 42.2556 29.5551 42.1798 29.5264 42.11C29.4976 42.0357 29.4417 41.975 29.3701 41.9399C29.1098 41.8481 28.8258 41.8481 28.5655 41.9399C28.3185 42.0098 28.0784 42.1021 27.8483 42.2158L27.9402 42.2801C27.9655 42.1079 27.9655 41.9329 27.9402 41.7606C27.9276 41.6722 27.8963 41.5876 27.8483 41.5123C27.8236 41.4707 27.7903 41.4348 27.7507 41.4071C27.7111 41.3793 27.6659 41.3603 27.6184 41.3514C27.2125 41.2498 26.785 41.2771 26.3954 41.4296C26.0263 41.5779 25.676 41.7693 25.3517 41.9997C24.6988 42.4181 24.069 42.8457 23.4667 43.2687L21.4437 44.1882L21.5218 44.2572C21.5816 44.0595 21.6368 43.8664 21.6874 43.6916L21.6368 43.733C22.128 43.6987 22.6025 43.5405 23.0161 43.2732C23.2138 43.1365 23.3646 42.9423 23.4483 42.7169C23.5191 42.4937 23.5287 42.2555 23.4758 42.0273V41.9767H23.4253L22.1701 42.2342H22.1977L21.0253 41.8526H20.9931V41.8801C20.3264 42.7721 19.7241 43.5859 19.1954 44.2985C19.0069 45.3744 18.8506 46.2755 18.7356 46.9744C18.3724 47.3974 18.092 47.7284 17.8943 47.9537L17.6828 48.2112C17.6655 48.2229 17.6487 48.2352 17.6322 48.248Z" fill="#7C5142"/>
<path d="M8.62987 10.4778C8.53994 9.51901 8.64443 8.55188 8.93704 7.63436C9.22965 6.71683 9.70438 5.86778 10.3328 5.13803C10.9613 4.40828 11.7305 3.81284 12.5944 3.38735C13.4584 2.96186 14.3993 2.71507 15.3609 2.66176C17.2226 2.55777 19.0542 3.16458 20.4856 4.35949C21.9169 5.5544 22.8411 7.24825 23.0713 9.09854C23.4897 12.4181 23.8391 15.7652 23.7931 16.9744C23.646 20.625 21.4345 21.9905 20.5379 22.3951C20.2185 22.5007 19.8886 22.5716 19.554 22.6066C19.5516 22.6108 19.5503 22.6155 19.5503 22.6204C19.5503 22.6252 19.5516 22.63 19.554 22.6342L20.2713 26.8503C20.5701 29.6089 18.9471 32.0181 16.1333 32.3445C13.3195 32.671 11.1862 30.5054 10.8276 27.7468L8.62987 10.4778Z" fill="#936754"/>
<path d="M21.908 11.4709C21.9264 11.6225 21.8847 11.7752 21.7919 11.8963C21.6991 12.0175 21.5625 12.0975 21.4115 12.1192C21.3371 12.1338 21.2607 12.1335 21.1865 12.1182C21.1123 12.1029 21.0419 12.073 20.9794 12.0302C20.9169 11.9874 20.8636 11.9325 20.8225 11.8689C20.7814 11.8052 20.7535 11.734 20.7402 11.6595C20.7219 11.5079 20.7635 11.3553 20.8563 11.2341C20.9491 11.1129 21.0857 11.0329 21.2368 11.0112C21.3111 10.9966 21.3876 10.9969 21.4618 11.0122C21.536 11.0275 21.6064 11.0574 21.6689 11.1002C21.7314 11.143 21.7847 11.1979 21.8258 11.2615C21.8668 11.3252 21.8948 11.3964 21.908 11.4709Z" fill="#263238"/>
<path d="M22.1885 10.0916C22.1241 10.1744 21.6368 9.90313 21.0069 9.9767C20.377 10.0503 19.9494 10.4365 19.8713 10.3491C19.7931 10.2618 19.8713 10.1744 20.0782 10.0043C20.3361 9.78141 20.658 9.64618 20.9977 9.61808C21.3244 9.57845 21.6553 9.6411 21.9448 9.79739C22.1379 9.92152 22.2207 10.0503 22.1885 10.0916Z" fill="#263238"/>
<path d="M16 12.2618C16.0184 12.4133 15.9767 12.566 15.8839 12.6871C15.7911 12.8083 15.6545 12.8883 15.5035 12.91C15.4291 12.9246 15.3527 12.9243 15.2785 12.909C15.2043 12.8937 15.1339 12.8638 15.0714 12.821C15.0089 12.7782 14.9555 12.7233 14.9145 12.6597C14.8734 12.596 14.8454 12.5248 14.8322 12.4503C14.8138 12.2987 14.8555 12.1461 14.9483 12.0249C15.0411 11.9037 15.1777 11.8237 15.3288 11.802C15.4031 11.7874 15.4796 11.7877 15.5538 11.803C15.6279 11.8183 15.6984 11.8482 15.7609 11.891C15.8233 11.9338 15.8767 11.9887 15.9177 12.0523C15.9588 12.116 15.9868 12.1872 16 12.2618Z" fill="#263238"/>
<path d="M15.9862 10.9284C15.9218 11.0112 15.4391 10.7399 14.8092 10.8135C14.1793 10.887 13.7517 11.2732 13.6736 11.1859C13.5954 11.0985 13.6736 11.0112 13.8759 10.8457C14.1332 10.6211 14.4552 10.4843 14.7954 10.4549C15.1241 10.4138 15.4574 10.4782 15.7471 10.6388C15.931 10.7629 16.0184 10.8916 15.9862 10.9284Z" fill="#263238"/>
<path d="M18.8414 15.2641C19.1622 15.1243 19.4987 15.0239 19.8437 14.9652C20.0046 14.9284 20.1517 14.8778 20.1655 14.7675C20.1639 14.6007 20.1073 14.4391 20.0046 14.3077C19.8069 13.9399 19.5954 13.5583 19.3793 13.1537C18.814 12.184 18.3266 11.1708 17.9218 10.1238C17.9908 10.087 18.754 11.3928 19.623 13.0342L20.2299 14.1928C20.3525 14.3718 20.4079 14.5884 20.3862 14.8043C20.37 14.8636 20.3404 14.9185 20.2998 14.9647C20.2591 15.0109 20.2085 15.0473 20.1517 15.071C20.0642 15.1041 19.9732 15.1273 19.8805 15.1399C19.5408 15.2251 19.1916 15.2668 18.8414 15.2641Z" fill="#263238"/>
<path d="M19.5264 22.6342C19.5264 22.6342 17.1127 23.0939 13.8391 21.6641C13.8391 21.6641 15.1862 24.7215 19.7195 23.7698L19.5264 22.6342Z" fill="#7C5142"/>
<path d="M18.754 16.7905C18.614 16.6563 18.4427 16.5592 18.2556 16.5078C18.0686 16.4564 17.8717 16.4525 17.6828 16.4962C17.5455 16.5233 17.4152 16.578 17.2998 16.657C17.1844 16.7361 17.0863 16.8378 17.0115 16.956C16.9395 17.0689 16.9048 17.2014 16.9122 17.3351C16.9197 17.4687 16.9689 17.5967 17.0529 17.7008C17.1682 17.8007 17.3103 17.8644 17.4615 17.884C17.6128 17.9036 17.7665 17.8783 17.9034 17.8112C18.1891 17.6733 18.4452 17.4813 18.6575 17.2457C18.7213 17.1864 18.7742 17.1163 18.8138 17.0388C18.8327 17.0021 18.8401 16.9606 18.8352 16.9196C18.8302 16.8786 18.8132 16.8401 18.7862 16.8089" fill="#7C5142"/>
<path d="M17.0345 15.9123C17.1356 15.9123 17.2184 16.5652 17.8621 16.9744C18.5058 17.3836 19.2414 17.2273 19.2414 17.3192C19.2414 17.4112 19.0943 17.4709 18.7816 17.5169C18.3808 17.5666 17.9751 17.4773 17.6322 17.2641C17.4682 17.1613 17.3262 17.0271 17.2141 16.8693C17.1021 16.7115 17.0223 16.5332 16.9793 16.3445C16.9287 16.087 16.9839 15.9123 17.0345 15.9123Z" fill="#263238"/>
<path d="M16.1379 9.80659C16.0966 9.9859 15.4575 9.9767 14.7264 10.1514C13.9954 10.3261 13.4207 10.6112 13.3012 10.4549C13.1816 10.2985 13.3334 10.2158 13.5586 10.0227C13.8559 9.7815 14.2054 9.61304 14.5793 9.53072C14.9545 9.44472 15.3443 9.44472 15.7195 9.53072C16.0046 9.60888 16.1563 9.72383 16.1379 9.80659Z" fill="#263238"/>
<path d="M21.8023 8.85026C21.7058 9.00199 21.2552 8.90543 20.7264 8.9606C20.1977 9.01577 19.7747 9.1675 19.6552 9.03417C19.5356 8.90083 19.6552 8.81808 19.8299 8.66175C20.0713 8.46924 20.3643 8.35253 20.672 8.32635C20.9796 8.30017 21.2882 8.36567 21.5586 8.51462C21.7609 8.63417 21.8391 8.7767 21.8023 8.85026Z" fill="#263238"/>
<path d="M20.0046 2.86405C19.7423 4.26206 19.0918 5.55801 18.1275 6.60363C17.1631 7.64926 15.924 8.40233 14.5517 8.77669C14.6299 8.43646 14.7081 8.09163 14.7908 7.74681C13.4802 10.0952 11.3382 11.8682 8.78621 12.7169C7.99156 11.2243 7.72843 9.50577 8.0401 7.84379C8.35177 6.18181 9.21969 4.67535 10.5011 3.57209C13.1218 1.41117 17.3609 0.900833 20.023 3.01578" fill="#263238"/>
<path d="M11.5724 11.002C10.9333 12.1974 11.1954 13.6595 11.5954 14.956C11.9954 16.2526 12.515 17.5629 12.377 18.91C12.2391 20.1606 11.5264 21.2916 11.3655 22.5376C11.0989 24.6388 12.423 26.5882 12.9333 28.648C13.2426 29.9813 13.2164 31.3706 12.8569 32.6914C12.4974 34.0121 11.816 35.2231 10.8736 36.2158C10.7881 36.3276 10.6801 36.4202 10.5565 36.4876C10.433 36.5549 10.2966 36.5954 10.1563 36.6066C9.99546 36.5828 9.8468 36.507 9.73306 36.3907C9.61932 36.2745 9.54677 36.1242 9.52644 35.9629C9.49551 35.6434 9.51255 35.3211 9.57701 35.0066C9.91264 31.9905 7.02068 29.4893 6.67126 26.4824C6.44137 24.5238 7.31495 22.6112 7.48966 20.648C7.71035 18.1744 6.82299 15.7468 6.57012 13.2916C6.44817 12.4482 6.52049 11.588 6.7816 10.7767C6.91725 10.3697 7.15027 10.002 7.46036 9.70552C7.77045 9.40905 8.14823 9.19279 8.5609 9.07555C8.98015 8.96927 9.42382 9.02059 9.80773 9.21975C10.1917 9.41891 10.4891 9.75207 10.6437 10.156" fill="#263238"/>
<path d="M10.8092 49.8296C10.5495 49.8556 10.2886 49.8679 10.0276 49.8663C9.40601 49.9263 8.80427 50.1175 8.26207 50.4273C7.71716 50.7393 7.24654 51.166 6.88276 51.6778C6.75213 51.906 6.6094 52.127 6.45518 52.3399C6.48806 52.0693 6.58585 51.8106 6.74023 51.5859C7.0779 51.0199 7.55461 50.5497 8.12513 50.2197C8.69565 49.8898 9.34102 49.7112 9.99999 49.7008C10.2763 49.674 10.5548 49.7183 10.8092 49.8296Z" fill="#263238"/>
<path d="M9.74252 39.9629C9.80689 39.9629 9.89424 42.156 9.94022 44.8687C9.9862 47.5813 9.94024 49.7744 9.89886 49.7744C9.75044 48.1451 9.68446 46.5093 9.70116 44.8732C9.65518 42.1606 9.67815 39.9629 9.74252 39.9629Z" fill="#263238"/>
<path d="M30.6437 43.2273C30.6023 43.2273 30.5609 42.6434 30.3954 41.7192C29.9611 39.3005 28.9659 37.0172 27.4897 35.0526C26.9241 34.2985 26.5241 33.871 26.5701 33.8434C26.6869 33.9181 26.7923 34.0095 26.8828 34.1146C27.1502 34.3784 27.4035 34.6561 27.6414 34.9468C28.4214 35.9141 29.0693 36.981 29.5678 38.1192C30.0661 39.2584 30.4064 40.4603 30.5793 41.6916C30.635 42.0632 30.6673 42.4379 30.6759 42.8135C30.6829 42.9522 30.6721 43.0913 30.6437 43.2273Z" fill="#263238"/>
<path d="M0.9931 35.825C0.997029 35.8739 0.997029 35.9231 0.9931 35.9721C0.9931 36.0824 0.9931 36.225 0.9931 36.4089C0.9931 36.8043 0.993103 37.3606 1.02529 38.0687C1.06207 39.5307 1.10805 41.6181 1.17242 44.1882C1.23678 46.7583 1.35632 49.8434 1.57241 53.2503C1.6 53.6732 1.63216 54.1054 1.66435 54.5422L1.71034 55.1951C1.74252 55.4158 1.77012 55.6319 1.8023 55.848C1.86438 56.2886 1.96124 56.7237 2.09196 57.1491C2.24166 57.5766 2.43098 57.9891 2.65747 58.3813C3.13029 59.1804 3.79981 59.8452 4.60228 60.3123C5.43208 60.7917 6.35931 61.0777 7.31494 61.1491H7.48505C8.19414 61.1954 8.90325 61.0592 9.54481 60.7537C10.1816 60.4599 10.7962 60.1203 11.3839 59.7376C12.5793 58.9959 13.7165 58.2296 14.7954 57.4388C16.806 56.0146 18.7212 54.4603 20.5287 52.7859V52.9146L17.3655 48.1146L17.4483 48.1468C15.3609 48.6618 13.7195 49.1169 12.5839 49.402L11.2874 49.7284L10.9517 49.8112C10.912 49.8155 10.8719 49.8155 10.8322 49.8112L10.9425 49.7698L11.2736 49.6687L12.5655 49.3008C13.6919 48.9928 15.3241 48.5146 17.4115 47.9813H17.4621L17.4943 48.0273L20.7126 52.7997L20.7586 52.8686L20.6988 52.9284C18.9134 54.6252 17.0181 56.2026 15.0253 57.6503C13.9494 58.4319 12.8046 59.1997 11.6046 59.9491C11.0021 60.339 10.3721 60.6848 9.71953 60.9836C9.03878 61.3056 8.28697 61.448 7.53562 61.3974H7.35173C6.35791 61.3251 5.39383 61.0263 4.53334 60.5238C3.69672 60.0365 2.9987 59.3433 2.50573 58.51C2.27123 58.1033 2.07574 57.6754 1.92184 57.2319C1.78889 56.7943 1.6905 56.3469 1.62758 55.8939C1.5954 55.6686 1.56781 55.4342 1.53563 55.2227L1.48966 54.5652C1.45748 54.1284 1.42989 53.6962 1.4023 53.2732C1.19541 49.8572 1.11264 46.7813 1.05287 44.1974C0.993102 41.6135 0.979298 39.5261 0.983895 38.0778C0.983895 37.3698 0.983895 36.8135 0.983895 36.4181V35.9813C0.980299 35.929 0.983398 35.8765 0.9931 35.825Z" fill="#263238"/>
<path d="M36.9885 54.6342C36.8843 54.6659 36.7755 54.6799 36.6667 54.6755C36.3705 54.6875 36.0738 54.6768 35.7793 54.6434C35.3417 54.5946 34.9093 54.5069 34.4874 54.3813C33.9716 54.2218 33.4714 54.0156 32.9931 53.7652C32.1347 53.3002 31.3313 52.7404 30.5977 52.0962C30.2782 51.8496 29.9909 51.5638 29.7425 51.2457C30.0839 51.4573 30.4068 51.6972 30.7081 51.9629C31.4578 52.5632 32.2594 53.0955 33.1034 53.5537C33.5692 53.7969 34.0535 54.0029 34.5517 54.1698C34.9602 54.3028 35.3783 54.4042 35.8023 54.4732C36.5287 54.5928 36.9885 54.5882 36.9885 54.6342Z" fill="#263238"/>
<path d="M38.1425 46.6526C37.4488 46.2704 36.7168 45.9622 35.9586 45.733C35.1796 45.5744 34.3857 45.5004 33.5908 45.5123C34.3818 45.2696 35.2274 45.2696 36.0184 45.5123C36.8254 45.6691 37.5659 46.0666 38.1425 46.6526Z" fill="#263238"/>
<path d="M36.1609 44.5928C36.1609 44.6663 35.5126 44.6572 34.7816 44.8686C34.0506 45.0801 33.485 45.4158 33.4483 45.356C33.8058 45.0202 34.2391 44.7755 34.7113 44.6427C35.1834 44.5098 35.6807 44.4927 36.1609 44.5928Z" fill="#263238"/>
<path d="M12.4736 69.1353C12.4736 69.1583 12.2621 69.0802 12.0138 68.8411C11.7083 68.5197 11.5051 68.1148 11.4299 67.6778C11.3491 67.2429 11.397 66.7939 11.5678 66.3859C11.7058 66.0732 11.8621 65.9261 11.8851 65.9491C11.9081 65.9721 11.8161 66.1422 11.7287 66.4411C11.6152 66.8292 11.5931 67.2384 11.6644 67.6365C11.7333 68.0312 11.8905 68.4052 12.1241 68.7307C12.3402 68.979 12.4966 69.1031 12.4736 69.1353Z" fill="#263238"/>
<path d="M17.1126 69.8112C17.1126 69.8388 16.8782 69.7652 16.5885 69.5353C16.216 69.2262 15.9281 68.8275 15.7517 68.3767C15.5679 67.9272 15.5061 67.4371 15.5724 66.956C15.6276 66.5882 15.7333 66.3859 15.7609 66.3951C15.7885 66.4043 15.7609 66.6204 15.7609 66.9698C15.7518 67.4193 15.8315 67.8661 15.9954 68.2847C16.1614 68.7039 16.41 69.0855 16.7264 69.4066C16.9471 69.6549 17.131 69.779 17.1126 69.8112Z" fill="#263238"/>
<path d="M21.4069 70.1284C21.4069 70.1514 21.1954 70.0732 20.9471 69.8526C20.6245 69.5544 20.3841 69.1784 20.2488 68.7605C20.1135 68.3426 20.088 67.8969 20.1747 67.4663C20.2483 67.1353 20.3632 66.9606 20.3862 66.9744C20.2678 67.5435 20.2997 68.1336 20.4786 68.6866C20.6576 69.2397 20.9775 69.7366 21.4069 70.1284Z" fill="#263238"/>
<path d="M25.7058 68.9698C25.6368 68.9698 25.577 68.3353 25.3379 67.5905C25.0989 66.8457 24.7954 66.2801 24.8552 66.2434C25.2106 66.5903 25.4581 67.0326 25.5678 67.5169C25.7551 67.9773 25.803 68.4825 25.7058 68.9698Z" fill="#263238"/>
<path d="M30.2345 67.3008C30.1648 66.7201 30.0588 66.1442 29.9172 65.5767C29.7017 65.0324 29.4482 64.5039 29.1586 63.9951C29.6478 64.3729 29.9958 64.9039 30.1471 65.5031C30.374 66.0763 30.4047 66.7084 30.2345 67.3008Z" fill="#263238"/>
<path d="M33.4253 65.402C33.3302 64.8536 33.2075 64.3104 33.0575 63.7744C32.754 62.91 32.2575 62.3261 32.3126 62.2801C32.7528 62.6594 33.0868 63.1466 33.2818 63.6939C33.4769 64.2412 33.5263 64.8298 33.4253 65.402Z" fill="#263238"/>
<path d="M36.1609 63.4893C36.0371 62.9513 35.8663 62.4252 35.6506 61.9169C35.3648 61.4423 35.0387 60.9931 34.6759 60.5744C35.1845 60.8583 35.5972 61.287 35.8616 61.806C36.1261 62.3251 36.2302 62.911 36.1609 63.4893Z" fill="#263238"/>
<g opacity="0.3">
<path d="M9.80228 49.6549C9.16851 49.2214 8.39023 49.0532 7.63403 49.1864C6.87783 49.3196 6.20383 49.7436 5.75631 50.3675C5.56848 50.6006 5.45907 50.887 5.44367 51.1859C5.43796 51.3363 5.47913 51.4848 5.5615 51.6108C5.64387 51.7369 5.76336 51.8342 5.90344 51.8893C6.1133 51.9236 6.32855 51.8987 6.52507 51.8175C6.72159 51.7363 6.89161 51.602 7.01607 51.4296C7.78635 50.5846 8.80012 49.9998 9.91722 49.756" fill="black"/>
</g>
<g opacity="0.3">
<path d="M33.5816 45.5077C34.8092 45.333 36.0138 45.8893 37.2598 46.0595C37.3689 46.0868 37.4823 46.0923 37.5935 46.0757C37.7048 46.0592 37.8116 46.0208 37.908 45.9629C37.9743 45.9071 38.0264 45.8362 38.06 45.7563C38.0936 45.6764 38.1077 45.5896 38.1011 45.5031C38.0795 45.3318 38.0057 45.1713 37.8897 45.0434C37.688 44.8516 37.4484 44.7042 37.1862 44.6108C36.9241 44.5173 36.6453 44.4799 36.3678 44.5008C35.797 44.4914 35.2276 44.561 34.6759 44.7077C34.4424 44.7473 34.2192 44.8331 34.0194 44.9603C33.8197 45.0874 33.6473 45.2532 33.5126 45.448" fill="black"/>
</g>
<path d="M0.993111 39.5813C1.05722 39.9476 1.23591 40.284 1.50345 40.5422C1.61872 40.6677 1.77614 40.7465 1.94571 40.7634C2.11528 40.7804 2.28515 40.7344 2.42299 40.6342C2.57931 40.4962 2.66208 40.2572 2.85978 40.1744C3.05748 40.0916 3.37472 40.3537 3.64139 40.3169C4.05059 40.2572 4.13335 39.5859 4.56093 39.5215C4.98852 39.4572 5.25057 40.0365 5.63218 39.9307C6.01378 39.825 5.96781 39.2411 6.29425 39.0434C6.62068 38.8457 6.93334 39.0985 7.17242 39.333C7.4115 39.5675 7.69655 39.848 8.02299 39.7698C8.56092 39.6365 8.57012 38.6756 9.12184 38.602C9.51265 38.556 9.88966 39.0296 10.2391 38.8503C10.4046 38.7629 10.4736 38.5606 10.6069 38.4365C10.869 38.1928 11.2782 38.2801 11.623 38.3583C11.9678 38.4365 12.4138 38.4503 12.5885 38.1468C11.7573 37.8043 10.8614 37.6474 9.96323 37.687C9.64992 37.7455 9.32605 37.6969 9.04369 37.5491C8.86438 37.425 8.72643 37.2043 8.51034 37.2089C8.29425 37.2135 8.18852 37.4112 8.00921 37.4756C7.71955 37.5813 7.42528 37.3238 7.27356 37.0526C7.1685 36.7625 6.99687 36.5011 6.77242 36.2893C6.57081 36.1898 6.33972 36.1676 6.12284 36.2269C5.90596 36.2862 5.71833 36.4229 5.59541 36.6112C5.36541 37.0018 5.24027 37.4453 5.23218 37.8985C4.77241 37.7468 4.77242 36.8962 4.27127 36.8089C3.95863 36.7537 3.70576 37.0618 3.58162 37.3514C3.45748 37.6411 3.33793 37.9767 3.05287 38.11C2.82299 37.7376 2.59311 37.3652 2.37242 36.9928C2.32154 37.3209 2.15404 37.6196 1.90067 37.8341C1.6473 38.0486 1.32507 38.1645 0.993111 38.1606" fill="white"/>
<path d="M20.5747 33.1675C20.7126 32.9054 20.846 32.6434 20.9793 32.3813C21.0845 32.4764 21.2103 32.5458 21.3468 32.5842C21.4833 32.6226 21.6268 32.6289 21.7661 32.6027C21.9055 32.5764 22.0369 32.5183 22.15 32.4328C22.2632 32.3473 22.355 32.2369 22.4184 32.11C22.5379 31.7882 22.4644 31.379 22.7081 31.1261C22.824 31.029 22.9685 30.9725 23.1195 30.965C23.2705 30.9575 23.4199 30.9996 23.5448 31.0847C23.7924 31.2603 23.9968 31.4898 24.1425 31.756C24.2277 31.4324 24.3848 31.1322 24.6023 30.8779C24.7166 30.7537 24.8686 30.6707 25.0348 30.6416C25.201 30.6125 25.3722 30.639 25.5218 30.7169C25.7058 30.8365 25.8483 31.071 26.0644 31.0526C26.4782 31.0158 26.3264 30.248 26.6989 30.0687C27.0713 29.8893 27.4299 30.4181 27.7793 30.2755C28.1288 30.133 28.0736 29.6962 28.354 29.5583C28.7724 29.356 29.1632 30.0916 29.6184 29.9905C29.8391 29.9399 29.9678 29.7192 30.1563 29.5951C30.3121 29.516 30.4882 29.486 30.6614 29.5089C30.8345 29.5319 30.9967 29.6068 31.1264 29.7238C31.38 29.9666 31.5804 30.2594 31.715 30.5836C31.8475 30.8087 31.9306 31.0595 31.9586 31.3192C31.9689 31.4492 31.938 31.5791 31.8704 31.6905C31.8027 31.8019 31.7017 31.8892 31.5816 31.9399C31.0897 32.0962 30.6253 31.379 30.1287 31.5399C29.7609 31.6595 29.6322 32.2158 29.2506 32.2618C28.869 32.3077 28.6069 31.7744 28.2069 31.7238C27.7471 31.6641 27.4989 32.2801 27.1402 32.6066C27.0185 32.7049 26.8769 32.7758 26.7253 32.8145C26.5736 32.8532 26.4154 32.8588 26.2614 32.8309C26.1074 32.803 25.9612 32.7422 25.8328 32.6527C25.7044 32.5632 25.5968 32.4471 25.5172 32.3123L24.7908 32.7721C24.6691 32.6951 24.5309 32.6478 24.3875 32.634C24.2441 32.6202 24.0995 32.6403 23.9653 32.6926C23.8311 32.7449 23.711 32.8281 23.6148 32.9353C23.5186 33.0426 23.449 33.1709 23.4115 33.31C23.4575 33.0756 23.1632 32.8962 22.9517 32.956C22.7289 33.0457 22.5427 33.2076 22.423 33.4158C22.3036 33.6259 22.1151 33.7884 21.8897 33.8755C21.5311 33.9675 21.1494 33.6687 20.7954 33.779C20.4414 33.8893 20.1977 34.4503 19.8069 34.3767C19.4161 34.3031 19.4345 33.802 19.6736 33.5629C19.9371 33.3619 20.2619 33.2579 20.5931 33.2687" fill="white"/>
<path d="M19.1724 43.471C19.1747 43.3409 19.1358 43.2134 19.0611 43.1068C18.9865 43.0002 18.8801 42.9199 18.757 42.8776C18.634 42.8352 18.5007 42.8329 18.3763 42.8709C18.2519 42.909 18.1427 42.9854 18.0644 43.0893C17.9264 43.2687 17.8759 43.5491 17.669 43.6181C17.3104 43.756 16.9609 43.1997 16.5977 43.3284C16.2345 43.4572 16.2943 43.9905 15.9724 44.1054C15.7242 44.1882 15.4897 43.9537 15.3609 43.7284C15.2322 43.5031 15.0989 43.2365 14.846 43.1859C14.5931 43.1353 14.2713 43.4618 14.1517 43.7652C14.0322 44.0687 13.9034 44.4365 13.5908 44.533C13.1678 44.671 12.8046 44.225 12.5885 43.8388C12.3724 43.4526 12.0046 43.0112 11.5816 43.1445C11.3599 43.2498 11.1847 43.4331 11.0896 43.6595L9.87127 45.8066L9.89885 48.1928C10.4598 48.1928 10.5563 47.6457 10.6023 47.0801C10.7337 47.2784 10.9284 47.4264 11.1547 47.4998C11.3809 47.5733 11.6254 47.568 11.8483 47.4847C12.293 47.3116 12.7027 47.0592 13.0575 46.7399C13.4153 46.4232 13.868 46.234 14.3448 46.202C14.6851 46.202 15.0483 46.3583 15.3471 46.202C15.646 46.0457 15.7471 45.5859 15.9724 45.2824C16.1282 45.1139 16.3174 44.9799 16.528 44.8888C16.7386 44.7977 16.966 44.7517 17.1954 44.7537C17.6525 44.7553 18.107 44.6855 18.5425 44.5468C18.7588 44.4724 18.9413 44.323 19.0569 44.1256C19.1724 43.9282 19.2134 43.696 19.1724 43.471Z" fill="white"/>
<path d="M33.3241 42.4962C33.336 42.2199 33.3113 41.9431 33.2506 41.6733C33.223 41.3974 33.3333 41.0572 33.6 40.9974C33.7119 40.9891 33.8241 41.0092 33.9262 41.0558C34.0282 41.1024 34.1169 41.1741 34.1839 41.2641C34.3142 41.4473 34.4969 41.5867 34.7081 41.6641C34.9104 41.4342 34.7081 41.0526 34.8506 40.7721C34.9305 40.645 35.0562 40.5535 35.2018 40.5167C35.3473 40.4799 35.5015 40.5006 35.6322 40.5744C35.8899 40.7304 36.1011 40.9526 36.2437 41.2181C36.331 40.91 36.7816 40.8549 37.0391 41.0342C37.2803 41.246 37.4504 41.5269 37.5264 41.8388C37.5547 41.9033 37.5692 41.9729 37.5692 42.0434C37.5692 42.1138 37.5547 42.1835 37.5264 42.248C37.4581 42.3461 37.3542 42.4137 37.2368 42.4365C36.8642 42.5405 36.4675 42.5162 36.1103 42.3675C35.9901 42.2953 35.8501 42.2631 35.7104 42.2756C35.4345 42.3445 35.4023 42.7767 35.1356 42.8778C34.9609 42.9468 34.754 42.8365 34.5747 42.9008C34.3954 42.9652 34.308 43.1767 34.1425 43.2641C34.0457 43.3035 33.939 43.3114 33.8374 43.2866C33.7359 43.2619 33.6448 43.2057 33.577 43.1261C33.4452 42.9661 33.3495 42.7795 33.2966 42.579L33.3563 42.5422" fill="white"/>
<path d="M33.3333 52.133C33.2873 52.3813 33.6138 52.5376 33.8575 52.4962C34.0939 52.4164 34.3396 52.367 34.5885 52.3491C34.7801 52.3975 34.9631 52.475 35.131 52.579C35.3586 52.675 35.6085 52.7051 35.8523 52.6661C36.0961 52.6271 36.3241 52.5205 36.5103 52.3583C36.5022 52.6057 36.5576 52.8511 36.6713 53.0709C36.7332 53.1784 36.8335 53.2585 36.952 53.2951C37.0705 53.3318 37.1985 53.3223 37.3103 53.2687C37.4312 53.1587 37.5242 53.0216 37.5816 52.8686C37.6598 52.7215 37.8023 52.579 37.9632 52.6158C38.1241 52.6526 38.1839 52.7997 38.2805 52.9146C38.6161 53.31 39.3103 53.1675 39.6598 52.7675C39.9503 52.3327 40.1098 51.8237 40.1195 51.3008C40.1471 51.0755 40.1517 50.7951 39.9632 50.6709C39.8761 50.6248 39.7755 50.6106 39.679 50.6307C39.5824 50.6509 39.4959 50.7041 39.4345 50.7813C39.3131 50.9355 39.231 51.117 39.1954 51.31C39.2303 51.1687 39.2348 51.0216 39.2087 50.8784C39.1826 50.7351 39.1264 50.5991 39.0439 50.4792C38.9613 50.3593 38.8543 50.2582 38.7298 50.1827C38.6054 50.1072 38.4663 50.0589 38.3218 50.0411C38.1766 50.0395 38.033 50.0723 37.9029 50.1368C37.7728 50.2014 37.6599 50.2958 37.5733 50.4125C37.4867 50.5291 37.429 50.6646 37.4049 50.8078C37.3808 50.951 37.3909 51.0979 37.4345 51.2365C37.3968 51.0186 37.3188 50.8097 37.2046 50.6204C37.1478 50.5253 37.0657 50.4479 36.9675 50.3967C36.8692 50.3456 36.7587 50.3227 36.6483 50.3307C36.308 50.3813 36.1517 50.7905 36.069 51.1123C35.9862 51.4342 35.8575 51.848 35.5218 51.9307C35.0988 52.0365 34.777 51.5537 34.3862 51.356C34.2277 51.2776 34.0505 51.2446 33.8744 51.2609C33.6982 51.2771 33.53 51.3419 33.3885 51.448L33.3333 52.133Z" fill="white"/>
<path d="M10.1379 62.1882C10.1379 62.1882 9.54942 64.2526 9.52184 64.2526C9.49425 64.2526 10.1287 63.8939 10.3862 63.9813C10.6437 64.0687 10.892 64.2664 11.1586 64.1974C11.577 64.0962 11.6644 63.425 12.0782 63.3514C12.2687 63.3412 12.456 63.4037 12.6023 63.5261C12.746 63.6495 12.921 63.7307 13.108 63.7606C13.2965 63.7606 13.5034 63.5997 13.4529 63.4204C13.515 63.6596 13.6649 63.8667 13.8728 64.0004C14.0807 64.1342 14.3312 64.1848 14.5747 64.1422C15.0584 64.0393 15.5155 63.8374 15.9172 63.5491C16.3178 63.2655 16.8089 63.1394 17.2965 63.1951C17.5944 63.2971 17.8822 63.4264 18.1563 63.5813C18.2953 63.655 18.4526 63.6868 18.6093 63.6729C18.7659 63.659 18.9152 63.6001 19.0391 63.5031C19.1678 63.3744 19.223 63.1721 19.3793 63.0709C19.4858 63.0223 19.6037 63.0043 19.7198 63.0189C19.8359 63.0335 19.9457 63.0802 20.0368 63.1537C20.2169 63.3015 20.4272 63.4083 20.6529 63.4664C20.8299 63.4663 21.0028 63.4126 21.1489 63.3125C21.2949 63.2124 21.4073 63.0705 21.4713 62.9054C21.623 62.5928 21.6827 62.2342 21.8391 61.9215C21.9049 61.7572 22.0196 61.6171 22.1676 61.5201C22.3156 61.4231 22.4898 61.3738 22.6667 61.379C22.8414 61.4066 23.0161 61.5123 23.1816 61.448C23.5127 61.3146 23.3149 60.7077 23.6184 60.5284C23.701 60.4922 23.7902 60.4735 23.8804 60.4735C23.9707 60.4735 24.0599 60.4922 24.1425 60.5284C24.8987 60.7521 25.7119 60.6764 26.4138 60.3169C26.2848 60.1284 26.1157 59.9709 25.9185 59.8556C25.7214 59.7403 25.5011 59.6702 25.2736 59.6503C24.8116 59.614 24.3467 59.6465 23.8943 59.7468C23.4903 59.7828 23.1024 59.9221 22.7678 60.1514C22.6253 60.2755 22.4874 60.4411 22.308 60.4457C21.977 60.4457 21.7793 59.9307 21.4575 60.0089C21.1356 60.087 21.2184 60.5468 20.9885 60.7307C20.7586 60.9146 20.4138 60.6847 20.1839 60.4824C19.954 60.2801 19.6046 60.0916 19.3793 60.2939C19.154 60.4962 19.2138 60.9698 18.9195 61.002C18.6253 61.0342 18.5931 60.5698 18.3862 60.3583C18.3223 60.3109 18.2491 60.2776 18.1713 60.2606C18.0936 60.2436 18.0131 60.2434 17.9353 60.2599C17.8574 60.2764 17.784 60.3093 17.7199 60.3564C17.6557 60.4035 17.6023 60.4637 17.5632 60.533C17.4171 60.8258 17.3657 61.1568 17.4161 61.4801C17.2307 61.1044 16.9461 60.7864 16.5931 60.5606C16.5032 60.5077 16.4038 60.4732 16.3005 60.4589C16.1972 60.4446 16.0921 60.4509 15.9913 60.4774C15.8904 60.5039 15.7958 60.5501 15.7129 60.6133C15.6299 60.6765 15.5603 60.7555 15.5081 60.8457C15.4621 60.9606 15.4483 61.0985 15.3517 61.1767C15.2757 61.2197 15.1864 61.2327 15.1013 61.2131C15.0162 61.1935 14.9415 61.1428 14.8919 61.0709C14.777 60.933 14.7218 60.7583 14.6069 60.6112C14.4989 60.4917 14.353 60.4132 14.1939 60.3889C14.0347 60.3646 13.872 60.396 13.7333 60.4779C13.5999 60.5668 13.5017 60.6995 13.4556 60.8531C13.4094 61.0066 13.4182 61.1715 13.4805 61.3192C13.2663 61.0658 12.9852 60.8776 12.6693 60.7762C12.3533 60.6748 12.0153 60.6643 11.6936 60.7457C11.372 60.8272 11.0797 60.9975 10.8502 61.2371C10.6206 61.4767 10.463 61.776 10.3954 62.1008L10.1379 62.1882Z" fill="white"/>
<path d="M2.82297 58.3905C3.69654 58.7905 4.52412 59.2089 5.08964 58.4319C5.19998 58.6475 5.36851 58.8279 5.57612 58.9526C5.78374 59.0773 6.02215 59.1414 6.26432 59.1375C6.50649 59.1337 6.74272 59.0621 6.94629 58.9309C7.14985 58.7997 7.3126 58.6141 7.41607 58.3951C7.61837 57.9721 7.62298 57.3974 8.03218 57.1629C8.49195 56.887 9.08044 57.333 9.62757 57.4342C10.2942 57.5583 10.9425 57.1353 11.4299 56.6572C11.86 56.1287 12.3704 55.671 12.9425 55.3008C13.485 55.025 14.2667 54.8181 14.2621 54.2112C14.2575 53.6043 13.5126 53.4066 13.0023 53.6043C12.5245 53.8753 12.0853 54.2093 11.6965 54.5974C11.2598 54.9284 10.5931 55.1169 10.1885 54.7445C9.95862 54.533 9.81149 54.156 9.49885 54.1606C9.1862 54.1652 9.03908 54.6204 9.03908 54.9606C9.03908 55.3008 8.87814 55.7514 8.53331 55.7238C8.18848 55.6962 8.12872 55.1629 7.88045 54.8916C7.51263 54.487 6.77239 54.8227 6.60687 55.3514C6.512 55.8941 6.60786 56.4529 6.87815 56.933L5.07586 54.5744L4.56552 56.3353C4.23121 55.8381 3.77541 55.4345 3.24138 55.1629C2.68506 54.9422 2.01838 55.0388 1.78849 55.5905C1.67815 55.7422 2.29884 58.1514 2.82297 58.3905Z" fill="white"/>
<path d="M35.2138 57.8618C35.0851 57.9997 35.2138 58.202 35.2598 58.3905C35.3158 58.575 35.3361 58.7685 35.3195 58.9606C35.2874 59.1491 35.108 59.3284 34.9195 59.2778C34.8184 59.2503 34.7448 59.1629 34.6529 59.1215C34.4092 59.0112 34.1563 59.2135 33.9126 59.3008C33.1035 59.5859 32.2207 58.648 31.4299 58.9698C30.9701 59.1491 30.6575 59.7054 30.1885 59.6089C30.0261 59.5596 29.8884 59.4506 29.8031 59.3039C29.7178 59.1572 29.6912 58.9836 29.7287 58.8181C29.8196 58.4893 30.0189 58.2009 30.2943 57.9997C30.5676 57.8019 30.8202 57.577 31.0483 57.3284C31.2092 57.1215 31.3701 56.8687 31.6322 56.8687C31.977 56.8687 32.1931 57.4342 32.5196 57.3284C32.6943 57.2687 32.7494 57.0526 32.7402 56.8687C32.708 56.6892 32.708 56.5055 32.7402 56.3261C32.7815 56.2466 32.839 56.1766 32.909 56.1207C32.9791 56.0649 33.0601 56.0243 33.1468 56.0018C33.2335 55.9793 33.3239 55.9752 33.4123 55.9899C33.5007 56.0046 33.585 56.0377 33.6598 56.087C33.9811 56.2722 34.2416 56.547 34.4092 56.8778L35.2138 57.8618Z" fill="white"/>
</svg>
