<svg width="306" height="200" viewBox="0 0 306 200" fill="none" xmlns="http://www.w3.org/2000/svg">
<path d="M300.563 48.7537H271.947V78.5836H300.563V48.7537Z" fill="#FFC77D"/>
<path d="M298.628 48.7537H270.011V78.5836H298.628V48.7537Z" fill="#FFDDB0"/>
<path d="M294.775 52.7629H273.855V74.5698H294.775V52.7629Z" fill="#B3FFF4"/>
<path d="M273.855 74.7169C273.698 74.9296 273.523 75.1281 273.331 75.31C272.995 75.6595 272.526 76.1376 272.002 76.6526C271.478 77.1675 270.991 77.6365 270.623 77.9675C270.44 78.1555 270.24 78.3263 270.025 78.4779C270.177 78.2621 270.351 78.0633 270.545 77.8847C270.88 77.5353 271.354 77.0572 271.878 76.5376C272.402 76.0181 272.89 75.5537 273.257 75.2227C273.439 75.0341 273.639 74.8647 273.855 74.7169Z" fill="#E0E0E0"/>
<path d="M294.779 74.6847C294.992 74.8417 295.19 75.0171 295.372 75.2089C295.722 75.5445 296.195 76.0135 296.715 76.5422C297.234 77.0709 297.699 77.5491 298.025 77.9215C298.215 78.1029 298.386 78.3032 298.536 78.5192C298.322 78.3672 298.125 78.193 297.947 77.9997C297.598 77.6641 297.12 77.1951 296.6 76.6664C296.08 76.1376 295.616 75.6549 295.285 75.287C295.097 75.1035 294.927 74.9018 294.779 74.6847Z" fill="#E0E0E0"/>
<path d="M294.724 52.8181C294.881 52.6064 295.056 52.4095 295.248 52.2296C295.584 51.8756 296.053 51.402 296.582 50.8825C297.11 50.3629 297.588 49.8985 297.961 49.5721C298.142 49.3821 298.343 49.2111 298.559 49.0618C298.407 49.2756 298.232 49.4729 298.039 49.6503C297.703 49.9997 297.234 50.4779 296.706 50.9974C296.177 51.5169 295.694 51.9813 295.326 52.3123C295.145 52.5022 294.943 52.6718 294.724 52.8181Z" fill="#E0E0E0"/>
<path d="M273.8 52.8733C273.585 52.7191 273.386 52.5435 273.207 52.3491C272.857 52.0135 272.379 51.5445 271.86 51.0158C271.34 50.487 270.88 50.0089 270.549 49.6365C270.358 49.4563 270.187 49.2559 270.039 49.0388C270.253 49.1908 270.45 49.365 270.628 49.5583C270.982 49.8939 271.455 50.3675 271.975 50.8916C272.494 51.4158 272.959 51.9031 273.29 52.271C273.479 52.4547 273.65 52.6564 273.8 52.8733Z" fill="#E0E0E0"/>
<path d="M294.724 74.5698C294.724 74.5698 294.724 74.533 294.724 74.4641V74.1606C294.724 73.8893 294.724 73.4985 294.724 72.9836C294.724 71.9537 294.724 70.4503 294.724 68.5422C294.724 64.7215 294.724 59.2779 294.687 52.7629L294.756 52.8319H273.897L273.975 52.7537C273.975 60.7583 273.975 68.248 273.975 74.5606L273.906 74.4962L289.018 74.5284H293.257H294.379H293.267H289.041L273.869 74.5652H273.8V74.4962C273.8 68.1836 273.8 60.7031 273.8 52.6894V52.6112H273.883H294.743H294.811V52.6802C294.811 59.2135 294.784 64.6756 294.775 68.5054C294.775 70.4043 294.775 71.9031 294.775 72.933C294.775 73.4388 294.775 73.825 294.775 74.0962C294.775 74.2204 294.775 74.3215 294.775 74.3905C294.765 74.4521 294.748 74.5123 294.724 74.5698Z" fill="#E0E0E0"/>
<path d="M279.377 61.871C279.377 61.871 278.917 67.2733 284.779 67.2733C284.779 64.3905 282.398 62.1146 279.377 61.871Z" fill="#E1F3F2"/>
<path d="M290.076 61.8755C290.076 61.8755 284.678 61.4158 284.678 67.2778C287.561 67.2778 289.832 64.9008 290.076 61.8755Z" fill="#E1F3F2"/>
<path d="M284.517 58.9238C284.517 58.9238 280.108 62.8825 284.761 67.2733C286.908 64.979 286.738 61.3836 284.517 58.9238Z" fill="#B3E1DE"/>
<path d="M244.292 3.19969V37.9353H194.407L192.609 3.44337L244.292 3.19969Z" fill="#FFC77D"/>
<path d="M192.609 3.44336V37.8618H242.494V3.44336H192.609Z" fill="#FFDDB0"/>
<path d="M242.729 38.0962H192.37V3.20889H242.729V38.0962ZM192.844 37.6365H242.255V3.68246H192.844V37.6365Z" fill="#FFC77D"/>
<path d="M237.092 7.71924H198.011V33.5859H237.092V7.71924Z" fill="#F1DAFF"/>
<path d="M237.092 7.71923H236.899H236.333H234.186L226.136 7.75141L198.002 7.80659L198.117 7.69164C198.117 15.5951 198.117 24.3537 198.117 33.5537L197.993 33.4296H237.074L236.972 33.5307C236.995 25.6595 237.014 19.2043 237.028 14.7123C237.028 12.4641 237.028 10.7123 237.051 9.50774C237.051 8.91463 237.051 8.45486 237.051 8.12843C237.051 7.80199 237.051 7.66865 237.051 7.66865C237.051 7.66865 237.051 7.82038 237.051 8.12843C237.051 8.43647 237.051 8.89164 237.051 9.47555C237.051 10.6755 237.051 12.4227 237.078 14.6618C237.078 19.1675 237.106 25.6411 237.129 33.5399V33.6365H237.032L197.952 33.6641H197.828V33.5399C197.828 24.3445 197.828 15.5813 197.828 7.67785V7.5675H197.943L226.149 7.62268L234.177 7.65026H236.301H236.844L237.092 7.71923Z" fill="#E0E0E0"/>
<path d="M192.609 3.34682C192.915 3.49799 193.202 3.68472 193.464 3.90314C193.975 4.27095 194.674 4.79509 195.423 5.39739C196.172 5.99969 196.834 6.56521 197.299 6.9882C197.566 7.20152 197.805 7.44707 198.011 7.71923C197.056 7.05636 196.135 6.34429 195.253 5.5859C194.323 4.89836 193.44 4.15038 192.609 3.34682Z" fill="#FFC77D"/>
<path d="M242.494 3.44337C241.674 4.25051 240.797 4.99729 239.869 5.67786C238.999 6.42285 238.077 7.10502 237.11 7.71924C237.932 6.91376 238.809 6.16709 239.736 5.48476C240.606 4.74031 241.528 4.05816 242.494 3.44337Z" fill="#FFC77D"/>
<path d="M242.453 37.8664L236.894 33.356L242.453 37.8664Z" fill="white"/>
<path d="M236.894 33.356C237.893 34.012 238.847 34.7339 239.749 35.5169C240.704 36.236 241.608 37.0211 242.453 37.8664C241.454 37.2104 240.5 36.4884 239.598 35.7054C238.642 34.988 237.738 34.2028 236.894 33.356Z" fill="#FFC77D"/>
<path d="M192.609 37.8618C193.421 37.063 194.289 36.3239 195.207 35.6503C196.076 34.9114 196.998 34.2368 197.966 33.6319C197.154 34.4306 196.286 35.1697 195.368 35.8434C194.497 36.5804 193.575 37.2549 192.609 37.8618Z" fill="#E0E0E0"/>
<path d="M205.947 15.779V24.4411H230.536V15.779L205.947 15.779Z" fill="#DFB7FF"/>
<path d="M35.1012 6.12843L19.4414 0.468658L3.93333 6.05486C1.95632 6.9744 0.21839 7.55831 0.21839 9.41578V18.6572C0.189777 25.1416 1.95782 31.5072 5.32644 37.048C8.67008 42.633 13.6441 47.0599 19.5793 49.733C25.9195 47.6595 30.6506 42.133 33.5425 37.4066C36.9118 31.8661 38.6799 25.5003 38.6506 19.0158V10.7077C38.6644 8.05946 37.2529 6.76751 35.1012 6.12843Z" fill="#B3E1DE"/>
<path d="M19.5931 44.3767C14.8869 42.2354 10.9483 38.7059 8.30575 34.2618C5.6393 29.8781 4.24037 24.8409 4.26437 19.71V13.2181C4.26437 11.7514 5.14253 10.3721 6.89425 9.53992L19.446 4.81348V0.468658L3.93333 6.05486C2.31035 6.76751 0.21839 7.55831 0.21839 9.39739V18.6388C0.189777 25.1232 1.95782 31.4888 5.32644 37.0296C8.67008 42.6146 13.6441 47.0415 19.5793 49.7146L19.5931 44.3767Z" fill="#DFB7FF"/>
<path d="M19.5931 49.7422C20.6561 49.3923 21.6855 48.9476 22.669 48.4135C25.0865 47.0334 27.2814 45.2958 29.1793 43.2595C30.9073 41.3873 32.4259 39.3323 33.708 37.1307C37.1239 31.5497 38.8457 25.0969 38.6644 18.556V10.9238C38.6644 7.12613 36.7195 6.84567 35.092 6.12843L19.4414 0.468658V4.82728L32.1448 9.62728C33.8919 10.4503 34.7701 11.825 34.7701 13.3054V19.7882C34.7947 24.9206 33.3958 29.9594 30.7287 34.3445C28.4299 38.0825 25.0506 41.9399 19.5931 44.3859V49.7422Z" fill="#CC91FF"/>
<path d="M23.5977 19.287V18.0411C23.5977 17.5073 23.4926 16.9788 23.2883 16.4857C23.0841 15.9926 22.7847 15.5445 22.4073 15.1671C22.0299 14.7897 21.5818 14.4903 21.0887 14.2861C20.5956 14.0818 20.0671 13.9767 19.5333 13.9767C18.9996 13.9767 18.4711 14.0818 17.978 14.2861C17.4849 14.4903 17.0368 14.7897 16.6594 15.1671C16.282 15.5445 15.9826 15.9926 15.7783 16.4857C15.5741 16.9788 15.469 17.5073 15.469 18.0411V19.3146C14.9296 19.3998 14.4382 19.6742 14.0827 20.0887C13.7271 20.5032 13.5308 21.0306 13.5287 21.5767V28.933C13.5287 29.5427 13.7709 30.1274 14.202 30.5586C14.6332 30.9897 15.2179 31.2319 15.8276 31.2319H23.4138C24.0235 31.2319 24.6082 30.9897 25.0393 30.5586C25.4704 30.1274 25.7126 29.5427 25.7126 28.933V21.5767C25.7122 20.9992 25.4944 20.4429 25.1025 20.0187C24.7106 19.5945 24.1734 19.3332 23.5977 19.287ZM20.6322 27.1031H18.646L18.9586 25.6595C18.7405 25.5181 18.574 25.31 18.4839 25.0663C18.3938 24.8226 18.3849 24.5562 18.4586 24.307C18.5323 24.0578 18.6846 23.8391 18.8928 23.6836C19.101 23.5281 19.3539 23.444 19.6138 23.444C19.8737 23.444 20.1266 23.5281 20.3347 23.6836C20.5429 23.8391 20.6952 24.0578 20.7689 24.307C20.8426 24.5562 20.8338 24.8226 20.7437 25.0663C20.6535 25.31 20.487 25.5181 20.269 25.6595L20.6322 27.1031ZM22.7195 19.287H16.3425V18.0503C16.3425 17.204 16.6787 16.3924 17.2771 15.794C17.8755 15.1956 18.6871 14.8595 19.5333 14.8595C20.3796 14.8595 21.1912 15.1956 21.7896 15.794C22.388 16.3924 22.7241 17.204 22.7241 18.0503L22.7195 19.287Z" fill="#955DC7"/>
<path d="M6.80229 19.1951C6.66699 18.7815 6.58812 18.3516 6.56781 17.9169C6.45195 16.8745 6.412 15.825 6.44827 14.7767C6.44827 14.1652 6.50804 13.5813 6.56321 13.0526C6.59086 12.5747 6.70946 12.1066 6.91264 11.6733C7.06392 11.3767 7.3032 11.1342 7.59769 10.979C7.80919 10.8825 7.94252 10.887 7.94252 10.9008C7.56544 11.0798 7.26173 11.3835 7.08275 11.7606C6.91587 12.186 6.82409 12.6372 6.81149 13.0939C6.77011 13.6181 6.73792 14.1974 6.72413 14.8043C6.68735 16.0181 6.72413 17.1031 6.7701 17.9169C6.81616 18.3414 6.82692 18.7689 6.80229 19.1951Z" fill="white"/>
<path d="M7.03218 23.2227C6.95402 23.2227 6.88965 22.8411 6.88046 22.3721C6.87126 21.9031 6.92183 21.5215 6.99999 21.5215C7.07815 21.5215 7.14252 21.8985 7.15172 22.3675C7.16091 22.8365 7.10574 23.2181 7.03218 23.2227Z" fill="white"/>
<path d="M263.529 154.988C261.494 153.718 259.194 152.931 256.807 152.689C255.708 152.579 254.508 152.611 253.625 153.273C253.524 153.332 253.44 153.418 253.382 153.521C253.325 153.623 253.296 153.74 253.299 153.857C253.351 154.022 253.46 154.162 253.607 154.253C256.343 156.34 260.48 156.602 263.529 155.007" fill="#E0E0E0"/>
<path d="M263.354 154.795C261.796 153.653 260.344 152.375 259.014 150.974C257.679 149.569 256.74 147.835 256.292 145.949C256.204 145.67 256.177 145.375 256.215 145.084C256.252 144.793 256.352 144.514 256.508 144.266C259.966 146.97 262.687 150.464 263.354 154.804" fill="#E0E0E0"/>
<path d="M263.492 154.961C263.17 153.071 263.198 151.139 263.575 149.259C263.959 147.366 265.042 145.686 266.609 144.556C267.207 145.935 266.949 147.563 266.531 149.025C265.877 151.287 264.86 153.428 263.52 155.365" fill="#E0E0E0"/>
<path d="M266.885 161.039C264.825 161.292 263.032 162.377 261.492 163.77C259.947 165.177 258.872 167.024 258.411 169.062C260.43 168.938 262.145 167.512 263.386 165.917C264.628 164.322 265.492 162.565 266.857 161.071" fill="#E0E0E0"/>
<path d="M267.621 162.013C266.813 159.954 266.53 157.726 266.798 155.53C267.067 153.334 267.877 151.239 269.156 149.434C270.333 153.609 269.901 158.322 267.621 162.013Z" fill="#E0E0E0"/>
<path d="M272.103 167.351C270.221 167.235 268.345 167.675 266.711 168.616C265.076 169.557 263.753 170.957 262.908 172.643C262.834 172.747 262.789 172.869 262.777 172.995C262.766 173.122 262.789 173.25 262.844 173.365C262.925 173.441 263.024 173.496 263.131 173.525C263.238 173.555 263.351 173.558 263.46 173.535C265.271 173.416 266.876 172.326 268.2 171.085C269.524 169.843 270.683 168.409 272.145 167.338" fill="#E0E0E0"/>
<path d="M271.961 167.062C271 163.953 270.941 160.635 271.791 157.494C272.126 156.262 272.71 154.965 273.832 154.39C273.878 154.361 273.929 154.34 273.983 154.331C274.037 154.321 274.092 154.323 274.145 154.335C274.238 154.384 274.308 154.466 274.342 154.565C274.728 155.431 274.893 156.379 274.825 157.324C274.757 158.261 274.612 159.192 274.393 160.105C274.034 161.802 273.846 163.627 272.913 165.089C272.694 165.444 272.496 165.811 272.32 166.188C272.145 166.556 272.145 166.689 271.984 166.984" fill="#E0E0E0"/>
<path d="M283.828 168.827C282.949 165.485 283.883 161.43 285.993 158.689C286.145 158.487 286.352 158.271 286.605 158.294C286.995 158.331 287.092 158.846 287.064 159.213C286.905 162.653 285.778 165.977 283.814 168.804" fill="#E0E0E0"/>
<path d="M284.899 169.558C286.977 170.051 289.138 170.086 291.231 169.661C293.325 169.236 295.301 168.362 297.023 167.099C294.998 166.08 292.682 165.795 290.471 166.294C288.283 166.795 286.278 167.774 284.917 169.558" fill="#E0E0E0"/>
<path d="M285.8 167.333C288.076 163.623 292.439 161.2 296.788 160.979C296.287 162.749 294.834 164.124 293.193 164.951C291.552 165.779 289.726 166.147 287.92 166.496C287.221 166.63 286.255 166.781 285.8 167.333Z" fill="#E0E0E0"/>
<path d="M284.057 156.524C284.745 154.432 285.215 152.275 285.46 150.087C285.63 147.899 285.317 145.609 284.177 143.724C282.053 147.839 281.837 152.643 283.993 156.745" fill="#E0E0E0"/>
<path d="M291.211 152.91C293.699 148.39 298.77 144.781 303.901 144.276C301.92 149.209 296.522 153.011 291.211 152.91Z" fill="#E0E0E0"/>
<path d="M289.667 153.797C293.372 154.358 296.531 156.726 299.998 158.165C300.724 158.516 301.528 158.675 302.333 158.625C302.701 158.611 303.056 158.487 303.352 158.269C303.648 158.052 303.873 157.75 303.996 157.404C304.119 157.057 304.136 156.682 304.043 156.326C303.951 155.97 303.754 155.65 303.478 155.407C302.986 154.956 302.409 154.608 301.782 154.381C298.007 152.809 293.966 152.768 289.984 153.724" fill="#E0E0E0"/>
<path d="M287.501 156.395C288.343 156.634 288.628 157.071 289.294 157.636C291.554 159.562 294.23 160.939 297.11 161.659C297.409 161.733 297.8 161.765 297.947 161.494C298.094 161.223 297.915 160.97 297.745 160.763C296.487 159.285 294.854 158.173 293.018 157.545C291.207 156.873 289.644 156.059 287.501 156.234" fill="#E0E0E0"/>
<path d="M285.069 140.689C286.59 142.095 288.388 143.166 290.348 143.834C292.308 144.503 294.386 144.753 296.448 144.57C296.637 144.572 296.82 144.505 296.963 144.381C297.253 144.069 296.908 143.59 296.577 143.328C293.235 140.726 289.184 139.65 285.083 140.699" fill="#E0E0E0"/>
<path d="M287.952 139.641C289.964 138.16 292.298 137.176 294.763 136.769C297.228 136.362 299.754 136.545 302.136 137.301C300.28 139.021 297.899 140.066 295.377 140.266C292.884 140.496 290.371 140.284 287.952 139.641Z" fill="#E0E0E0"/>
<path d="M286.811 132.423C286.485 129.089 286.697 126.446 286.467 123.108C286.467 122.836 286.388 122.515 286.14 122.418C285.791 122.285 285.501 122.712 285.386 123.071C284.9 124.624 284.776 126.267 285.022 127.875C285.268 129.483 285.879 131.013 286.807 132.349" fill="#E0E0E0"/>
<path d="M286.572 132.795C288.747 131.385 290.622 129.561 292.09 127.425C293.179 125.931 294.099 124.142 293.851 122.308C293.082 122.329 292.328 122.517 291.639 122.859C290.951 123.202 290.345 123.69 289.864 124.289C288.913 125.497 288.221 126.889 287.832 128.377C287.372 129.843 287.083 131.351 286.563 132.795" fill="#E0E0E0"/>
<path d="M291.998 131.287C296.972 129.445 301.578 126.73 305.598 123.269C303.97 122.616 302.113 123.007 300.49 123.659C296.806 125.054 293.761 127.75 291.929 131.236" fill="#E0E0E0"/>
<path d="M288.099 134.616C290.609 134.892 293.156 135.076 295.648 134.653C298.14 134.23 300.407 133.273 302.697 132.312C302.889 132.252 303.053 132.123 303.156 131.949C303.193 131.843 303.196 131.729 303.166 131.621C303.135 131.514 303.073 131.418 302.986 131.347C302.81 131.207 302.604 131.111 302.384 131.066C299.897 130.368 297.211 130.694 294.766 131.526C292.435 132.321 290.195 133.358 288.08 134.62" fill="#E0E0E0"/>
<path d="M273.768 140.804C272.053 137.347 272.163 133.315 273.644 129.77C274.687 131.356 274.812 133.379 274.623 135.287C274.435 137.195 273.855 139.117 273.818 141.016" fill="#E0E0E0"/>
<path d="M266.926 137.356C264.782 137.328 262.656 137.747 260.683 138.587C258.71 139.427 256.934 140.669 255.469 142.234C257.629 142.493 259.817 142.087 261.74 141.071C263.651 140.058 265.453 138.854 267.12 137.476" fill="#E0E0E0"/>
<path d="M262.324 135.834C260.232 135.664 258.223 135.407 256.209 136.023C255.194 136.309 254.252 136.81 253.448 137.492C252.644 138.175 251.995 139.022 251.547 139.977C253.521 140.136 255.501 139.761 257.28 138.892C259.055 138.027 260.747 137.003 262.338 135.834" fill="#E0E0E0"/>
<path d="M269.133 135.889C267.253 134.653 265.322 133.397 263.129 132.887C260.936 132.377 258.402 132.754 256.871 134.404C258.646 135.448 260.798 135.572 262.848 135.568C264.899 135.563 267.446 135.545 269.368 136.23" fill="#E0E0E0"/>
<path d="M269.147 135.986C265.929 132.827 264.71 127.154 266.002 122.836C268.543 126.723 269.655 131.371 269.147 135.986Z" fill="#E0E0E0"/>
<path d="M277.993 127.039C278.6 125.627 279.028 124.147 279.57 122.712C280.064 121.253 280.827 119.9 281.818 118.722C282.826 117.538 284.257 116.797 285.805 116.657C285.31 118.833 284.366 120.882 283.035 122.673C281.703 124.463 280.013 125.957 278.071 127.057" fill="#E0E0E0"/>
<path d="M276.393 128.901C275.386 127.522 274.228 125.646 272.867 124.611C271.506 123.577 269.731 122.956 268.071 123.351C268.932 124.859 270.132 126.146 271.576 127.109C273.021 128.073 274.67 128.686 276.393 128.901Z" fill="#E0E0E0"/>
<path d="M276.71 127.154C275.991 125.505 275.459 123.781 275.124 122.013C274.792 120.23 275.076 118.387 275.929 116.786C277.694 120.124 278.264 123.71 276.802 127.191" fill="#E0E0E0"/>
<path d="M278.007 116.786C279.009 113.48 282.039 111.043 285.308 109.922C285.715 109.758 286.154 109.693 286.591 109.733C286.808 109.757 287.013 109.844 287.181 109.984C287.349 110.124 287.471 110.31 287.533 110.519C287.653 111.08 287.188 111.586 286.752 111.958C284.197 114.142 281.225 115.785 278.016 116.786" fill="#E0E0E0"/>
<path d="M278.044 114.082C278.172 111.949 278.306 109.784 279 107.761C279.694 105.738 281.028 103.843 282.977 102.961C283.308 105.112 282.356 107.259 281.207 109.112C280.057 110.965 278.683 112.717 277.988 114.786" fill="#E0E0E0"/>
<path d="M277.993 115.549C277.165 113.14 277.074 110.073 275.634 107.972C274.628 106.505 273.009 105.503 272.14 103.949C271.615 105.441 271.688 107.079 272.342 108.519C273.003 109.941 273.907 111.235 275.014 112.345C276.085 113.485 277 114.345 277.993 115.563" fill="#E0E0E0"/>
<path d="M278.007 186.565C277.943 186.565 277.887 170.473 277.883 150.639C277.878 130.804 277.929 114.708 277.993 114.708C278.057 114.708 278.113 130.8 278.117 150.639C278.122 170.478 278.071 186.565 278.007 186.565Z" fill="#E0E0E0"/>
<path d="M292.067 138.377C291.873 138.474 291.669 138.551 291.46 138.607L289.795 139.168C288.416 139.627 286.467 140.335 284.375 141.195C282.283 142.055 280.347 142.804 279.234 143.77C278.788 144.144 278.434 144.616 278.2 145.149C278.044 145.526 278.011 145.756 277.993 145.756C277.975 145.756 277.993 145.696 277.993 145.586C278.018 145.429 278.058 145.275 278.113 145.126C278.323 144.565 278.669 144.064 279.12 143.669C279.792 143.104 280.543 142.639 281.349 142.289C282.241 141.871 283.23 141.439 284.278 141.007C286.379 140.147 288.324 139.476 289.74 139.039C290.448 138.818 291.028 138.653 291.432 138.547C291.638 138.471 291.851 138.414 292.067 138.377Z" fill="#E0E0E0"/>
<path d="M296.674 127.057C296.674 127.057 296.623 127.126 296.503 127.241L295.988 127.724L294.062 129.476L287.648 135.186C285.143 137.416 282.982 139.545 281.478 141.163C280.729 141.963 280.14 142.625 279.736 143.089L279.276 143.623C279.226 143.687 279.169 143.746 279.106 143.797C279.141 143.723 279.186 143.654 279.239 143.591C279.34 143.462 279.478 143.269 279.699 143.03C280.08 142.57 280.655 141.866 281.391 141.053C283.327 138.936 285.374 136.924 287.524 135.025C290.039 132.804 292.324 130.804 293.984 129.365L295.961 127.673L296.508 127.213C296.558 127.156 296.613 127.104 296.674 127.057Z" fill="#E0E0E0"/>
<path d="M284.945 137.453C284.88 137.425 285.405 136.216 285.924 134.694C286.444 133.172 286.697 131.876 286.761 131.889C286.709 132.875 286.501 133.847 286.145 134.768C285.921 135.427 285.66 136.073 285.363 136.703C285.26 136.972 285.119 137.224 284.945 137.453Z" fill="#E0E0E0"/>
<path d="M278.021 147.19C277.88 147.049 277.752 146.895 277.639 146.731L276.651 145.489C275.818 144.413 274.669 142.933 273.386 141.315C272.103 139.696 270.913 138.239 270.057 137.177L269.046 135.926C268.915 135.785 268.8 135.631 268.701 135.466C268.851 135.593 268.99 135.733 269.115 135.885C269.372 136.165 269.74 136.574 270.182 137.089C271.074 138.115 272.278 139.554 273.565 141.177C274.853 142.8 275.984 144.299 276.784 145.397C277.184 145.949 277.501 146.395 277.703 146.712C277.826 146.86 277.933 147.02 278.021 147.19Z" fill="#E0E0E0"/>
<path d="M274.954 143.232C274.332 142.543 273.889 141.713 273.662 140.813C273.421 140.025 273.321 139.2 273.368 138.377H273.474C273.428 138.565 273.391 138.662 273.372 138.657C273.351 138.559 273.351 138.457 273.372 138.358H273.474C273.523 139.162 273.662 139.958 273.887 140.731C274.18 141.59 274.536 142.426 274.954 143.232Z" fill="#E0E0E0"/>
<path d="M270.959 138.225C270.676 138.013 270.367 137.838 270.039 137.705C269.229 137.463 268.377 137.394 267.538 137.503C266.688 137.57 265.845 137.706 265.018 137.912C264.678 138.018 264.331 138.101 263.979 138.161C264.288 137.976 264.623 137.838 264.972 137.751C265.802 137.504 266.656 137.349 267.52 137.292C268.391 137.177 269.276 137.271 270.103 137.567C270.457 137.68 270.759 137.913 270.959 138.225Z" fill="#E0E0E0"/>
<path d="M270.016 137.016C270.016 137.048 269.492 136.804 268.637 136.51C266.399 135.745 264.003 135.563 261.676 135.981C260.784 136.138 260.246 136.308 260.232 136.266C260.347 136.198 260.471 136.146 260.6 136.11C260.942 135.993 261.29 135.896 261.644 135.82C263.995 135.3 266.447 135.487 268.692 136.358C269.031 136.49 269.361 136.644 269.68 136.818C269.897 136.924 270.025 136.997 270.016 137.016Z" fill="#E0E0E0"/>
<path d="M277.993 131.885C277.582 130.741 277.246 129.573 276.986 128.386C276.647 127.218 276.386 126.029 276.205 124.827C276.611 125.972 276.948 127.14 277.211 128.326C277.545 129.495 277.806 130.684 277.993 131.885Z" fill="#E0E0E0"/>
<path d="M278.057 131.885C277.735 131.16 277.362 130.46 276.94 129.788C276.468 129.153 275.915 128.583 275.294 128.092C275.528 128.15 275.745 128.262 275.929 128.418C276.395 128.76 276.801 129.178 277.129 129.655C277.628 130.304 277.949 131.073 278.057 131.885Z" fill="#E0E0E0"/>
<path d="M278.007 177.99C278.007 177.99 277.938 177.604 277.754 176.919C277.488 175.959 277.128 175.027 276.678 174.138C275.57 171.866 273.547 168.984 270.977 166.101C269.703 164.643 268.467 163.273 267.418 161.963C266.477 160.804 265.627 159.574 264.876 158.285C264.371 157.415 263.94 156.505 263.589 155.563C263.474 155.227 263.386 154.965 263.34 154.786C263.305 154.696 263.282 154.602 263.271 154.505C263.271 154.505 263.409 154.873 263.676 155.531C264.054 156.454 264.503 157.347 265.018 158.202C265.786 159.468 266.643 160.677 267.584 161.82C268.637 163.122 269.883 164.487 271.152 165.958C273.726 168.85 275.749 171.765 276.825 174.073C277.268 174.978 277.609 175.93 277.841 176.91C277.902 177.176 277.95 177.444 277.984 177.715C278.002 177.805 278.01 177.898 278.007 177.99Z" fill="#E0E0E0"/>
<path d="M290.71 163.641C290.498 163.783 290.275 163.909 290.044 164.018C289.443 164.357 288.867 164.738 288.32 165.158C287.51 165.786 286.752 166.478 286.053 167.227C285.253 168.069 284.434 169.066 283.598 170.092C281.924 172.188 280.379 174.046 279.423 175.531C278.963 176.266 278.6 176.91 278.375 177.319C278.269 177.552 278.146 177.776 278.007 177.991C278.019 177.925 278.041 177.861 278.071 177.802C278.117 177.682 278.186 177.503 278.292 177.282C278.583 176.649 278.915 176.034 279.285 175.443C280.205 173.922 281.745 172.041 283.423 169.926C284.26 168.878 285.092 167.899 285.901 167.057C286.617 166.31 287.394 165.625 288.223 165.007C288.786 164.594 289.383 164.229 290.007 163.917C290.228 163.807 290.407 163.738 290.526 163.687C290.586 163.665 290.647 163.649 290.71 163.641Z" fill="#E0E0E0"/>
<path d="M290.959 168.299C290.495 168.398 290.025 168.466 289.552 168.501C288.422 168.619 287.304 168.839 286.214 169.158C285.136 169.509 284.126 170.039 283.225 170.726C282.54 171.259 282.214 171.701 282.182 171.673C282.23 171.554 282.301 171.445 282.388 171.351C282.61 171.078 282.856 170.825 283.124 170.597C284.017 169.858 285.042 169.295 286.145 168.938C287.249 168.608 288.388 168.408 289.538 168.34C290.009 168.281 290.485 168.267 290.959 168.299Z" fill="#E0E0E0"/>
<path d="M282.591 171.163C282.517 171.122 283.152 170.151 283.644 168.864C284.136 167.577 284.214 166.395 284.297 166.409C284.332 166.66 284.325 166.915 284.274 167.163C284.205 167.77 284.067 168.366 283.864 168.942C283.649 169.513 283.375 170.06 283.046 170.574C282.928 170.795 282.774 170.993 282.591 171.163Z" fill="#E0E0E0"/>
<path d="M294.825 151.145C294.757 151.196 294.681 151.236 294.6 151.264L293.938 151.567C293.648 151.692 293.299 151.848 292.903 152.055C292.508 152.262 292.039 152.473 291.556 152.763L290.788 153.2C290.522 153.351 290.26 153.535 289.979 153.71C289.414 154.055 288.848 154.478 288.241 154.905C285.649 156.837 283.388 159.177 281.547 161.834C281.138 162.455 280.733 163.034 280.411 163.613C280.246 163.899 280.071 164.165 279.952 164.436C279.832 164.708 279.671 164.97 279.543 165.223C279.267 165.715 279.083 166.184 278.88 166.602C278.678 167.02 278.54 167.361 278.421 167.655L278.145 168.326C278.116 168.407 278.078 168.485 278.03 168.556C278.046 168.473 278.069 168.392 278.099 168.312L278.338 167.623C278.439 167.324 278.572 166.961 278.756 166.551C278.94 166.142 279.124 165.659 279.391 165.172C279.515 164.915 279.648 164.653 279.791 164.377C279.933 164.101 280.099 163.83 280.251 163.535C280.568 162.951 280.968 162.363 281.377 161.733C283.213 159.044 285.492 156.685 288.117 154.758C288.733 154.326 289.308 153.908 289.883 153.567C290.168 153.397 290.434 153.218 290.701 153.066L291.483 152.643C291.975 152.358 292.444 152.156 292.862 151.963C293.28 151.77 293.625 151.618 293.924 151.503L294.6 151.246C294.671 151.204 294.747 151.17 294.825 151.145Z" fill="#E0E0E0"/>
<path d="M284.77 157.903C284.867 157.578 285.061 157.291 285.326 157.08C285.946 156.544 286.733 156.242 287.552 156.225C288.356 156.223 289.152 156.38 289.897 156.685C290.212 156.784 290.511 156.929 290.784 157.117C290.47 157.051 290.162 156.959 289.864 156.841C289.124 156.589 288.348 156.46 287.565 156.459C286.795 156.475 286.049 156.736 285.437 157.204C285.199 157.422 284.976 157.655 284.77 157.903Z" fill="#E0E0E0"/>
<path d="M283.271 159.434C283.568 158.777 283.779 158.085 283.901 157.374C283.947 156.656 283.899 155.934 283.759 155.227C283.786 155.227 283.91 155.434 284.021 155.825C284.158 156.339 284.195 156.874 284.131 157.402C284.074 157.929 283.918 158.441 283.671 158.91C283.579 159.112 283.442 159.291 283.271 159.434Z" fill="#E0E0E0"/>
<path d="M266.899 180.294C267.244 186.446 269.097 192.708 271.956 199.016H284.347C287.064 192.758 288.789 186.515 289.097 180.294H266.899Z" fill="#E0E0E0"/>
<path d="M287.078 190.243C287.078 190.308 283 190.358 277.965 190.358C272.931 190.358 268.853 190.308 268.853 190.243C268.853 190.179 272.931 190.128 277.965 190.128C283 190.128 287.078 190.179 287.078 190.243Z" fill="#FAFAFA"/>
<path d="M286.802 192.473C286.802 192.538 282.977 192.588 278.26 192.588C273.543 192.588 269.717 192.538 269.717 192.473C269.717 192.409 273.543 192.354 278.26 192.354C282.977 192.354 286.802 192.409 286.802 192.473Z" fill="#FAFAFA"/>
<path d="M272.145 184.331C272.304 186.231 272.304 188.141 272.145 190.041C271.992 188.141 271.992 186.231 272.145 184.331Z" fill="#FAFAFA"/>
<path d="M278.784 184.331C278.943 186.298 278.943 188.276 278.784 190.243C278.631 188.275 278.631 186.299 278.784 184.331Z" fill="#FAFAFA"/>
<path d="M285.018 184.28C285.172 186.288 285.172 188.305 285.018 190.312C284.865 188.305 284.865 186.288 285.018 184.28Z" fill="#FAFAFA"/>
<path d="M288.692 184.331C288.692 184.395 283.906 184.45 278.007 184.45C272.108 184.45 267.317 184.395 267.317 184.331C267.317 184.266 272.103 184.216 278.007 184.216C283.91 184.216 288.692 184.266 288.692 184.331Z" fill="#FAFAFA"/>
</svg>
