<svg width="31" height="31" viewBox="0 0 31 31" fill="none" xmlns="http://www.w3.org/2000/svg">
<path d="M0.754023 29.8342L3.44367 23.9859C1.21745 20.9755 0.197764 17.2413 0.585032 13.5172C0.972301 9.79315 2.73852 6.34863 5.53651 3.86069C8.3345 1.37276 11.9619 0.0213675 15.7057 0.0721432C19.4495 0.122919 23.0389 1.57219 25.7684 4.13509C28.4979 6.69799 30.17 10.1891 30.4561 13.9223C30.7423 17.6555 29.6217 21.3607 27.3146 24.3096C25.0076 27.2586 21.681 29.2379 17.9887 29.8586C14.2963 30.4793 10.5054 29.6965 7.36092 27.6641L0.754023 29.8342Z" fill="#F1DAFF"/>
<path d="M0.754036 29.8342L7.34712 27.6135L7.32414 27.71L7.0069 27.3698L7.39772 27.6181C9.6004 29.0348 12.1379 29.8453 14.754 29.9675C15.5382 30.0088 16.3245 29.9795 17.1035 29.8802C17.5035 29.8204 17.9081 29.7744 18.3173 29.7054L19.5494 29.4066C23.1969 28.3535 26.3069 25.9519 28.2483 22.6893C29.3256 20.8858 30.0059 18.8732 30.2437 16.7859C30.4833 14.5805 30.2321 12.3494 29.508 10.2526C28.7596 8.05945 27.4986 6.07658 25.8299 4.46865C24.147 2.8078 22.0914 1.57348 19.8345 0.868653C17.669 0.215219 15.384 0.0580719 13.1494 0.408883C11.0353 0.732541 9.01828 1.51738 7.24138 2.70773C4.04295 4.85263 1.79118 8.1447 0.951733 11.9031C0.620043 13.4991 0.534768 15.1365 0.698866 16.7583C0.985445 19.3521 1.94777 21.8253 3.48967 23.9307V23.9583V23.9859C1.75634 27.6641 0.919559 29.4434 0.731053 29.8112C0.89657 29.4434 1.69657 27.6549 3.37013 23.9399V23.9951C1.79275 21.8852 0.804227 19.3941 0.505742 16.7767C0.333007 15.136 0.412086 13.4786 0.740229 11.8618C1.57752 8.0498 3.85154 4.7071 7.08965 2.52842C8.88641 1.31887 10.9268 0.518427 13.0667 0.183597C15.3346 -0.173914 17.6539 -0.0167797 19.8529 0.643367C22.1498 1.34792 24.2449 2.59173 25.9632 4.27095C27.656 5.90491 28.9344 7.91936 29.692 10.1468C30.4242 12.2768 30.6769 14.5423 30.4322 16.7813C30.1857 18.8957 29.4913 20.9333 28.3954 22.7583C26.4216 26.0633 23.261 28.4905 19.5586 29.5445L18.3127 29.8434C17.8989 29.9123 17.4851 29.9583 17.0805 30.0181C16.2918 30.1122 15.4966 30.1384 14.7034 30.0962C12.0578 29.9623 9.49524 29.1277 7.27817 27.6778L7.35633 27.5859L7.4161 27.6549L7.32874 27.6824L0.754036 29.8342Z" fill="#263238"/>
<path d="M20.2483 15.5813C20.793 15.0708 21.1828 14.4171 21.3731 13.6952C21.5633 12.9733 21.5463 12.2124 21.3239 11.4998C21.1016 10.7871 20.6829 10.1515 20.1159 9.66587C19.5489 9.18023 18.8565 8.8642 18.1182 8.75399C17.3798 8.64379 16.6253 8.74388 15.9413 9.04279C15.2572 9.3417 14.6712 9.82733 14.2504 10.444C13.8296 11.0607 13.5912 11.7835 13.5623 12.5294C13.5335 13.2754 13.7155 14.0144 14.0874 14.6618L13.2828 15.4158L13.4713 16.7537L12.2207 16.4043L11.2092 17.3468L11.4023 18.6893L10.1517 18.3353L9.28276 19.1445L9.3977 19.9629L8.62069 19.7192L8.11495 20.179L8.04137 21.4204L9.88045 21.8801L15.8897 16.2755C16.6034 16.6038 17.3984 16.713 18.1742 16.5895C18.9501 16.4659 19.6718 16.115 20.2483 15.5813ZM19.6552 10.6893C19.8094 10.8541 19.9113 11.0608 19.948 11.2835C19.9847 11.5062 19.9544 11.7347 19.8611 11.9402C19.7678 12.1456 19.6157 12.3188 19.4239 12.4377C19.2321 12.5567 19.0094 12.616 18.7838 12.6083C18.5583 12.6006 18.3401 12.5261 18.157 12.3943C17.9738 12.2625 17.8338 12.0793 17.7548 11.8679C17.6758 11.6566 17.6613 11.4265 17.7132 11.2069C17.765 10.9872 17.8808 10.7879 18.046 10.6342C18.2669 10.4285 18.5603 10.3188 18.862 10.3292C19.1636 10.3395 19.4489 10.469 19.6552 10.6893Z" fill="#263238"/>
<path d="M19.6552 10.6893C19.6552 10.6893 19.5816 10.6204 19.4299 10.5284C19.2147 10.3984 18.9624 10.3434 18.7126 10.3721C18.4853 10.4025 18.2736 10.5047 18.1085 10.6638C17.9433 10.823 17.8333 11.0308 17.7946 11.2569C17.7559 11.4829 17.7904 11.7155 17.8932 11.9205C17.9959 12.1256 18.1615 12.2924 18.3658 12.3967C18.5701 12.501 18.8024 12.5373 19.0287 12.5003C19.2551 12.4632 19.4637 12.3548 19.6241 12.1909C19.7845 12.0269 19.8883 11.816 19.9203 11.5889C19.9524 11.3618 19.911 11.1304 19.8023 10.9284C19.7195 10.7675 19.646 10.6985 19.6552 10.6893C19.6644 10.6802 19.6552 10.6893 19.7103 10.7399C19.7593 10.7907 19.8011 10.8479 19.8345 10.91C19.9699 11.1365 20.0204 11.4038 19.977 11.6641C19.9467 11.8589 19.8676 12.0428 19.747 12.1988C19.6264 12.3547 19.4683 12.4776 19.2874 12.556C19.0636 12.654 18.8148 12.6796 18.5758 12.6294C18.3367 12.5791 18.1193 12.4554 17.954 12.2756C17.7809 12.0914 17.6727 11.8557 17.646 11.6043C17.616 11.3716 17.6594 11.1353 17.7701 10.9284C17.8597 10.7559 17.9906 10.6081 18.151 10.4983C18.3114 10.3884 18.4964 10.3198 18.6897 10.2985C18.9535 10.2744 19.2173 10.3445 19.4345 10.4962C19.4944 10.5344 19.5485 10.5808 19.5954 10.6342C19.6552 10.6664 19.6552 10.6893 19.6552 10.6893Z" fill="#263238"/>
<path d="M20.2483 15.5813L20.1885 15.6365L20.0138 15.7928C19.7768 15.9832 19.5192 16.1467 19.246 16.2802C18.8024 16.4909 18.324 16.6187 17.8345 16.6572C17.1733 16.7098 16.5094 16.596 15.9035 16.3261H15.9356L9.95861 21.9445H9.93563L8.09655 21.4847H8.05979V21.448C8.08278 21.0572 8.10575 20.6342 8.13334 20.202L8.63907 19.7422H8.66666L9.42989 19.9537L9.37012 20.0089L9.25058 19.1905V19.1629L10.1195 18.3491H10.1425L11.3977 18.6985L11.3333 18.7537C11.2736 18.3307 11.2092 17.871 11.1402 17.4158V17.3882L11.4069 17.1399L12.1517 16.4457H12.1793L13.4299 16.7951L13.3701 16.8503C13.3058 16.3905 13.2414 15.9307 13.177 15.5077L13.9862 14.7537V14.8135C13.6752 14.2599 13.4987 13.6409 13.4713 13.0066C13.4557 12.6986 13.4773 12.3899 13.5356 12.087C13.589 11.7906 13.6786 11.5019 13.8023 11.2273C14.1087 10.5285 14.608 9.93157 15.2418 9.50672C15.8756 9.08187 16.6175 8.84671 17.3803 8.82884C18.1431 8.81098 18.8952 9.01116 19.5482 9.40588C20.2012 9.80059 20.728 10.3735 21.0667 11.0572C21.3794 11.7061 21.5143 12.4264 21.4575 13.1445C21.4089 13.6792 21.2525 14.1984 20.9977 14.671L20.9241 14.8135L20.8414 14.9376C20.7951 15.0155 20.7445 15.0907 20.6897 15.1629C20.5839 15.2916 20.5011 15.4066 20.423 15.4893C20.3448 15.5721 20.2805 15.6273 20.2391 15.6733L20.1747 15.733L20.2299 15.6641L20.4092 15.4756C20.4874 15.3928 20.5655 15.2778 20.6713 15.1491C20.777 15.0204 20.7632 15.002 20.8184 14.9238L20.8966 14.7951L20.9655 14.6572C21.2103 14.186 21.3559 13.6696 21.3931 13.1399C21.4486 12.4332 21.312 11.7247 20.9977 11.0893C20.6653 10.4182 20.1481 9.85606 19.507 9.46896C18.8658 9.08187 18.1275 8.88597 17.3788 8.90432C16.6301 8.92268 15.9022 9.15452 15.2808 9.57257C14.6594 9.99062 14.1704 10.5775 13.8713 11.2641C13.7524 11.5333 13.666 11.8158 13.6138 12.1054C13.556 12.4083 13.5343 12.717 13.5494 13.025C13.5781 13.6449 13.7513 14.2494 14.0552 14.7905V14.8227L14.1379 14.6618L13.3333 15.4158V15.3698C13.3977 15.8296 13.4621 16.2618 13.5264 16.7123V16.7859H13.4575L12.2023 16.4319H12.2483L11.5081 17.1261L11.2368 17.3744V17.3284C11.3012 17.7882 11.3655 18.248 11.4299 18.671V18.7445H11.3563L10.1379 18.3399H10.1839L9.31495 19.1491V19.1077C9.35633 19.3882 9.39771 19.6687 9.4345 19.9261V19.9997L9.36092 19.9767L8.62069 19.7652H8.66666L8.16092 20.225V20.1928C8.16092 20.6204 8.11036 21.048 8.08737 21.4342L8.05058 21.3836L9.88966 21.8434H9.84827L15.8667 16.2526C16.465 16.5214 17.1204 16.6383 17.7747 16.5928C18.2528 16.5573 18.7204 16.4341 19.154 16.2296C19.4266 16.1033 19.6855 15.9492 19.9265 15.7698L20.1057 15.6181L20.2483 15.5813Z" fill="#263238"/>
<path d="M20.1149 15.1215C20.6596 14.611 21.0495 13.9573 21.2397 13.2354C21.43 12.5135 21.4129 11.7527 21.1906 11.04C20.9682 10.3273 20.5496 9.69174 19.9826 9.2061C19.4156 8.72046 18.7232 8.40443 17.9849 8.29422C17.2465 8.18402 16.492 8.28411 15.8079 8.58302C15.1238 8.88193 14.5378 9.36756 14.1171 9.98424C13.6963 10.6009 13.4578 11.3237 13.429 12.0697C13.4002 12.8157 13.5821 13.5547 13.954 14.202L13.1494 14.956L13.3425 16.2939L12.0873 15.9445L11.0759 16.8641L11.269 18.2066L10.0184 17.8526L9.14944 18.6618L9.26438 19.4801L8.50114 19.2687L7.99541 19.7284L7.92183 20.9698L9.76091 21.4296L15.7701 15.8204C16.4826 16.145 17.2751 16.2519 18.0481 16.1276C18.8212 16.0032 19.5402 15.6532 20.1149 15.1215ZM19.5264 10.2388C19.6807 10.4035 19.7826 10.6103 19.8193 10.8329C19.8559 11.0556 19.8257 11.2841 19.7324 11.4896C19.6391 11.6951 19.4869 11.8682 19.2952 11.9872C19.1034 12.1061 18.8806 12.1655 18.6551 12.1577C18.4296 12.15 18.2114 12.0755 18.0282 11.9437C17.8451 11.8119 17.7051 11.6287 17.6261 11.4174C17.5471 11.206 17.5326 10.9759 17.5844 10.7563C17.6362 10.5367 17.7521 10.3374 17.9172 10.1836C18.1381 9.97794 18.4316 9.86826 18.7332 9.87861C19.0349 9.88895 19.3201 10.0185 19.5264 10.2388Z" fill="#FF8D00"/>
<path d="M19.5264 10.2388C19.5264 10.2388 19.4529 10.1698 19.3011 10.0778C19.0862 9.94711 18.8337 9.89209 18.5839 9.92153C18.4289 9.9397 18.2797 9.99081 18.146 10.0714C18.0124 10.152 17.8976 10.2603 17.8093 10.3889C17.721 10.5176 17.6612 10.6636 17.6339 10.8172C17.6067 10.9709 17.6126 11.1286 17.6513 11.2797C17.69 11.4309 17.7606 11.572 17.8583 11.6937C17.956 11.8153 18.0786 11.9147 18.2179 11.985C18.3572 12.0554 18.5099 12.0951 18.6658 12.1016C18.8217 12.1081 18.9772 12.0812 19.1219 12.0227C19.2631 11.9617 19.3902 11.8722 19.4954 11.76C19.6007 11.6477 19.6817 11.515 19.7334 11.3702C19.7852 11.2253 19.8065 11.0713 19.7962 10.9178C19.7859 10.7643 19.7442 10.6145 19.6736 10.4778C19.5908 10.3169 19.5172 10.248 19.5264 10.2388C19.5356 10.2296 19.5265 10.2388 19.5816 10.2893C19.6306 10.3401 19.6723 10.3974 19.7057 10.4595C19.8431 10.6852 19.8938 10.9532 19.8483 11.2135C19.8179 11.4083 19.7388 11.5922 19.6182 11.7482C19.4976 11.9042 19.3395 12.0271 19.1586 12.1054C18.9349 12.2034 18.6861 12.2291 18.447 12.1788C18.208 12.1285 17.9906 12.0048 17.8253 11.825C17.6521 11.6408 17.5439 11.4051 17.5172 11.1537C17.4872 10.921 17.5306 10.6847 17.6414 10.4778C17.731 10.3053 17.8618 10.1575 18.0222 10.0477C18.1826 9.93779 18.3677 9.8692 18.5609 9.84796C18.8233 9.82415 19.0856 9.89421 19.3011 10.0457C19.361 10.0838 19.4152 10.1303 19.4621 10.1836C19.5127 10.2158 19.531 10.2388 19.5264 10.2388Z" fill="#263238"/>
<path d="M20.1149 15.1215L20.0552 15.1767L19.8805 15.333C19.6434 15.5235 19.3859 15.6869 19.1126 15.8204C18.6691 16.0312 18.1907 16.1589 17.7011 16.1974C17.0399 16.25 16.3761 16.1362 15.7701 15.8664H15.8023L9.82528 21.4847L7.9862 21.025H7.94941V20.9882C7.94941 20.5974 7.99541 20.1744 8.02299 19.7422L8.52873 19.2825H8.55631L9.31955 19.4939L9.25977 19.5491L9.14023 18.7307V18.7031L10.0092 17.8894L11.2644 18.2388L11.2046 18.2939C11.1402 17.871 11.0759 17.4112 11.0115 16.956V16.9284L11.2782 16.6802L12.023 15.9859H12.0506L13.3011 16.3353L13.2414 16.3905C13.177 15.9307 13.1126 15.471 13.0483 15.048L13.8575 14.2939V14.3537C13.5464 13.8002 13.37 13.1812 13.3425 12.5468C13.327 12.2388 13.3486 11.9301 13.4069 11.6273C13.4602 11.3309 13.5498 11.0421 13.6736 10.7675C14.0513 9.89898 14.7249 9.19265 15.5745 8.77422C16.4242 8.3558 17.3948 8.25244 18.3135 8.48254C19.2322 8.71263 20.0395 9.26125 20.5917 10.0308C21.1438 10.8003 21.405 11.7407 21.3287 12.6848C21.2824 13.2198 21.1258 13.7395 20.869 14.2112L20.7954 14.3537L20.7126 14.4779C20.6664 14.5558 20.6157 14.631 20.5609 14.7031C20.4552 14.8319 20.3724 14.9468 20.2943 15.0296L20.1103 15.2135L20.1149 15.1215L20.1701 15.0526L20.3494 14.8641C20.4276 14.7813 20.5058 14.6664 20.6115 14.5376C20.7172 14.4089 20.7035 14.3905 20.7586 14.3123L20.8368 14.1836L20.9057 14.0457C21.1506 13.5745 21.2961 13.0581 21.3333 12.5284C21.4048 11.6021 21.146 10.6805 20.6026 9.92687C20.0593 9.17327 19.2666 8.63647 18.3652 8.41166C17.4637 8.18685 16.5118 8.28857 15.6783 8.69878C14.8447 9.10899 14.1833 9.80118 13.8115 10.6526C13.6927 10.9219 13.6062 11.2043 13.554 11.4939C13.4962 11.7968 13.4746 12.1055 13.4897 12.4135C13.5207 13.033 13.6937 13.637 13.9954 14.179V14.2112L13.9678 14.2388L13.1632 14.9928V14.9468C13.2276 15.4066 13.2919 15.8388 13.3563 16.2893V16.3629H13.2828L12.0276 16.0089H12.0736L11.3793 16.6526L11.1126 16.9008V16.8549C11.177 17.3146 11.246 17.7744 11.3058 18.1974V18.271H11.2322L10 17.8802H10.046L9.17702 18.6893V18.648C9.2184 18.9284 9.25975 19.2089 9.29654 19.4664V19.5399H9.22299L8.45978 19.3284H8.50575L8.00001 19.7882V19.756C8.00001 20.1836 7.94942 20.6112 7.92643 20.9974L7.88964 20.9468L9.72872 21.4066H9.68736L15.7057 15.8158C16.304 16.0846 16.9595 16.2015 17.6138 16.156C18.0919 16.1205 18.5595 15.9974 18.9931 15.7928C19.2657 15.6665 19.5245 15.5124 19.7655 15.333L19.9448 15.1813L20.1149 15.1215Z" fill="#263238"/>
<path d="M19.7471 14.8089C19.9458 14.6026 20.1244 14.3778 20.2805 14.1376C20.4634 13.854 20.6014 13.5438 20.6897 13.2181C20.8245 12.7468 20.8578 12.2523 20.7873 11.7672C20.7167 11.2822 20.544 10.8176 20.2805 10.4043C19.9465 9.88553 19.4819 9.46375 18.9333 9.1813C18.6438 9.03164 18.334 8.92478 18.0138 8.86406C17.8451 8.83408 17.6746 8.81565 17.5035 8.80889C17.3289 8.79743 17.1538 8.79743 16.9793 8.80889C16.2542 8.89301 15.5747 9.20566 15.0391 9.70159C14.5035 10.1975 14.1396 10.851 14 11.5675C13.9685 11.7392 13.9485 11.9127 13.9402 12.087C13.9386 12.2575 13.9463 12.4278 13.9632 12.5974C13.9968 12.9275 14.0821 13.2502 14.2161 13.5537C14.4539 14.123 14.8416 14.6172 15.3379 14.9836C15.7699 15.304 16.2704 15.5196 16.8 15.6135C17.2375 15.6875 17.6849 15.6797 18.1195 15.5905C18.4414 15.5217 18.7513 15.4055 19.0391 15.2457C19.2876 15.1045 19.523 14.9414 19.7425 14.7583C19.7425 14.7583 19.7425 14.7583 19.7058 14.7997L19.5816 14.91C19.5146 14.9728 19.4423 15.0297 19.3655 15.0802C19.2673 15.1527 19.1644 15.2188 19.0575 15.2779C18.7628 15.4489 18.4432 15.573 18.1104 15.6457C17.3079 15.8243 16.4683 15.7167 15.7369 15.3413C15.0055 14.966 14.4285 14.3466 14.1058 13.5905C13.9696 13.2778 13.8828 12.9459 13.8483 12.6066C13.8275 12.4327 13.8183 12.2576 13.8207 12.0825C13.8283 11.9033 13.8498 11.725 13.8851 11.5491C14.0225 10.8078 14.3929 10.1296 14.9425 9.61348C15.4974 9.10375 16.1988 8.78198 16.9471 8.69394C17.1258 8.67482 17.3055 8.66714 17.4851 8.67096C17.6594 8.67926 17.8329 8.69922 18.0046 8.73073C18.3413 8.79155 18.6669 8.90317 18.9701 9.06176C19.4964 9.33014 19.9464 9.72707 20.2783 10.2158C20.6103 10.7044 20.8135 11.269 20.869 11.8572C20.9487 12.6519 20.7505 13.4497 20.308 14.1146C20.2435 14.2192 20.1696 14.3176 20.0874 14.4089C20.033 14.4809 19.9731 14.5486 19.9081 14.6112L19.7885 14.7261C19.7655 14.7997 19.7517 14.8135 19.7471 14.8089Z" fill="#263238"/>
<path d="M19.5862 11.9951C19.5862 11.9951 19.669 11.9077 19.7839 11.733C19.9344 11.4781 19.9989 11.1815 19.9678 10.887C19.948 10.6869 19.8802 10.4945 19.7701 10.3261C19.645 10.131 19.4705 9.97235 19.2644 9.86635C19.0859 9.77762 18.8892 9.73156 18.6898 9.73179C18.4905 9.73202 18.2939 9.77855 18.1156 9.8677C17.9373 9.95685 17.7822 10.0862 17.6624 10.2455C17.5426 10.4049 17.4614 10.5898 17.4253 10.7859C17.3809 11.024 17.4038 11.2699 17.4915 11.4957C17.5793 11.7215 17.7283 11.9184 17.9218 12.0641C18.0817 12.1876 18.2697 12.2697 18.469 12.3031C18.7589 12.3557 19.0581 12.3104 19.3195 12.1744C19.4146 12.1212 19.5067 12.0629 19.5954 11.9997C19.5954 11.9997 19.5954 11.9997 19.5402 12.0595C19.4795 12.1171 19.4115 12.1666 19.3379 12.2066C19.0722 12.3637 18.7597 12.4222 18.4552 12.3721C18.2274 12.337 18.0123 12.2442 17.8304 12.1026C17.6485 11.961 17.5059 11.7752 17.4161 11.5629C17.309 11.3122 17.2786 11.0354 17.3287 10.7675C17.384 10.4776 17.5287 10.2123 17.7425 10.0089C17.9505 9.81532 18.2131 9.69068 18.4945 9.652C18.776 9.61333 19.0625 9.6625 19.3149 9.79279C19.5314 9.9092 19.7148 10.0784 19.8483 10.2847C20.0154 10.5396 20.0885 10.8448 20.055 11.1477C20.0214 11.4507 19.8833 11.7324 19.6644 11.9445L19.5862 11.9951Z" fill="#263238"/>
<path d="M9.28736 21.2273C9.28736 21.2043 10.6207 19.9123 12.3081 18.3399C13.9954 16.7675 15.3793 15.5031 15.3977 15.5261C15.4161 15.5491 14.0644 16.8365 12.377 18.4135C10.6896 19.9905 9.30575 21.2457 9.28736 21.2273Z" fill="#263238"/>
<path d="M10.0322 13.3606L10.0874 13.2365L10.1609 13.3468C10.2199 13.4366 10.3027 13.5082 10.4 13.5537L10.5241 13.6089L10.4138 13.6825C10.324 13.7414 10.2524 13.8242 10.2069 13.9215L10.1517 14.0457L10.0782 13.9307C10.0191 13.8421 9.93624 13.772 9.83909 13.7284L9.71494 13.6733L9.82989 13.5997C9.91848 13.5406 9.9886 13.4578 10.0322 13.3606Z" fill="#FF8D00"/>
<path d="M6.35402 12.4411L6.38621 12.3721L6.42758 12.4365C6.4639 12.488 6.51302 12.5292 6.5701 12.556L6.63908 12.5882L6.5747 12.6296C6.52103 12.6615 6.4791 12.7098 6.45516 12.7675L6.42297 12.8411L6.38161 12.7767C6.34803 12.7227 6.2981 12.6808 6.23908 12.6572L6.1701 12.625L6.23448 12.5836C6.28602 12.5473 6.32723 12.4981 6.35402 12.4411Z" fill="#FF8D00"/>
<path d="M17.9402 18.7123L17.9724 18.6434L18.0138 18.7077C18.0484 18.7591 18.096 18.8004 18.1517 18.8273L18.2253 18.8595L18.1609 18.9008C18.1072 18.9327 18.0653 18.9811 18.0414 19.0388L18.0092 19.1123L17.9632 19.0434C17.9297 18.9922 17.8817 18.9522 17.8253 18.9284L17.7563 18.8962L17.8207 18.8503C17.8721 18.8157 17.9133 18.7681 17.9402 18.7123Z" fill="#FF8D00"/>
<path d="M23.6092 15.4985L23.6644 15.3744L23.7379 15.4847C23.7961 15.577 23.8811 15.6492 23.9816 15.6916L24.1011 15.7468L23.9908 15.8204C23.901 15.8794 23.8294 15.9621 23.7839 16.0595L23.7287 16.1836L23.6552 16.0733C23.5974 15.9824 23.5143 15.9105 23.4161 15.8664L23.2919 15.8112L23.4069 15.7376C23.4955 15.6786 23.5656 15.5957 23.6092 15.4985Z" fill="#FF8D00"/>
<path d="M22.8736 10.9836L22.9655 10.7767L23.0896 10.9652C23.1876 11.1175 23.3284 11.2374 23.4942 11.31L23.6965 11.402L23.508 11.5261C23.357 11.6255 23.2374 11.7658 23.1632 11.9307L23.0713 12.1376L22.9471 11.9491C22.8504 11.7975 22.7113 11.6776 22.5471 11.6043L22.3402 11.5123L22.5287 11.3882C22.681 11.2902 22.801 11.1495 22.8736 10.9836Z" fill="#FF8D00"/>
<path d="M8.88737 9.60429L8.9839 9.39739L9.10345 9.5859C9.20282 9.73694 9.34316 9.85655 9.50804 9.93072L9.71495 10.0227L9.52643 10.1468C9.37539 10.2462 9.25578 10.3865 9.1816 10.5514L9.08967 10.7583L8.96552 10.5698C8.86755 10.4175 8.72679 10.2976 8.56092 10.225L8.35862 10.133L8.54714 10.0089C8.69582 9.90811 8.8136 9.76805 8.88737 9.60429Z" fill="#FF8D00"/>
</svg>
