<svg width="130" height="51" viewBox="0 0 130 51" fill="none" xmlns="http://www.w3.org/2000/svg">
<g clip-path="url(#clip0_280_2185)">
<path d="M33.3346 46.2754L26.1123 30.7234H23.9617V50.2598H26.2086V36.0276L32.7006 50.2598H33.9605L40.4525 36.0276V50.2434H42.6994V30.7234H40.5247L33.3346 46.2754Z" fill="#038E82"/>
<path d="M55.3142 45.2595C55.1952 45.857 54.9425 46.4181 54.5759 46.8992C54.1742 47.4241 53.6575 47.8453 53.0673 48.1289C52.3742 48.458 51.6166 48.6207 50.8525 48.6044C50.2823 48.6285 49.7149 48.5103 49.1994 48.2601C48.8141 48.0713 48.4907 47.7722 48.2685 47.3993C48.0735 47.0496 47.9711 46.654 47.9716 46.2515C47.959 45.8479 48.0683 45.45 48.2846 45.112C48.4899 44.7818 48.7639 44.5019 49.0871 44.2922C49.4335 44.0906 49.7992 43.9258 50.1784 43.8003C50.7675 43.6361 51.3649 43.5047 51.9679 43.4067C52.6259 43.3002 53.3321 43.2018 54.0784 43.0952L55.5229 42.8903C55.5229 43.1198 55.5229 43.3821 55.5229 43.7101C55.509 44.2172 55.4363 44.7208 55.3062 45.2104L55.3142 45.2595ZM57.4327 38.0123C57.0307 37.0925 56.3188 36.3507 55.4266 35.9218C54.3782 35.42 53.2295 35.1758 52.0722 35.2085C50.6851 35.1366 49.3114 35.5154 48.1482 36.2907C47.1548 37.0329 46.4454 38.1055 46.142 39.324L48.3889 40.0127C48.5862 39.2097 49.0736 38.5126 49.7531 38.0615C50.4421 37.645 51.2318 37.4347 52.0321 37.4548C52.5341 37.3967 53.0425 37.4494 53.5228 37.6092C54.0032 37.769 54.4444 38.0323 54.8167 38.3812C55.3359 39.1072 55.599 39.9915 55.563 40.8899L53.958 41.103C53.0914 41.2178 52.2327 41.349 51.3901 41.4884C50.6219 41.6114 49.8611 41.7784 49.1111 41.9884C48.4372 42.174 47.7993 42.4763 47.2253 42.8821C46.7156 43.2449 46.2998 43.7288 46.0136 44.2922C45.7132 44.9478 45.5683 45.6666 45.5906 46.3902C45.6129 47.1138 45.8018 47.8218 46.142 48.4569C46.5114 49.1498 47.0686 49.7192 47.7469 50.0965C48.583 50.5219 49.5097 50.7276 50.4432 50.695C51.6789 50.7308 52.9003 50.4188 53.9741 49.7932C54.6935 49.344 55.3029 48.7327 55.7556 48.006V50.2933H57.85V41.1932C57.8516 40.6456 57.8249 40.0983 57.7698 39.5536C57.7186 39.0466 57.5886 38.5512 57.3846 38.0861" fill="#038E82"/>
<path d="M63.4513 31.5276H61.084V44.7185C61.084 45.4728 61.084 46.145 61.084 46.7353C61.1129 47.3466 61.2688 47.9447 61.5414 48.4897C61.8491 49.1403 62.3681 49.6618 63.0099 49.9654C63.7092 50.289 64.4653 50.4647 65.2328 50.4819C66.0757 50.5132 66.9192 50.4388 67.7445 50.2605V48.2192C66.9162 48.3759 66.0698 48.4063 65.2328 48.3093C64.9174 48.2774 64.6142 48.1683 64.3489 47.9914C64.0835 47.8144 63.8637 47.5748 63.7081 47.2928C63.5334 46.9508 63.44 46.5717 63.4352 46.186C63.4352 45.7597 63.4352 45.2514 63.4352 44.6529V37.5615H67.7605V35.6021H63.4513V31.5276Z" fill="#038E82"/>
<path d="M72.4389 38.8073C72.8446 38.3172 73.3574 37.9313 73.9358 37.6806C74.5142 37.43 75.1422 37.3217 75.7691 37.3644C76.3501 37.3243 76.9322 37.4252 77.4678 37.6588C78.0033 37.8925 78.4772 38.2523 78.8506 38.7089C79.4485 39.5781 79.7986 40.5998 79.8617 41.6602H71.3636C71.4516 40.6222 71.8243 39.6306 72.4389 38.7991V38.8073ZM81.0975 43.6032H82.3173C82.4223 42.0719 82.1977 40.5356 81.6592 39.1024C81.2107 37.9202 80.4145 36.9092 79.3802 36.2084C78.2781 35.5045 76.9961 35.1507 75.6969 35.1918C74.4221 35.1567 73.1631 35.4861 72.0617 36.1428C71.0186 36.7897 70.1822 37.7325 69.6543 38.8565C69.0488 40.1557 68.7519 41.5826 68.7876 43.0212C68.756 44.4102 69.0563 45.7862 69.6623 47.0301C70.2071 48.1315 71.0406 49.0567 72.0697 49.7027C73.2026 50.3709 74.4934 50.7084 75.8012 50.6783C77.1295 50.6965 78.4352 50.3268 79.5648 49.6125C80.6921 48.8948 81.5706 47.8339 82.0765 46.5792L79.8136 45.7594C79.4578 46.5479 78.8829 47.2122 78.1605 47.6696C77.4186 48.1278 76.5634 48.3583 75.6969 48.3336C75.0838 48.3676 74.4713 48.2575 73.9064 48.0116C73.3416 47.7657 72.8395 47.3906 72.4389 46.9153C71.7393 45.9482 71.3547 44.7811 71.3395 43.5786H81.0975V43.6032Z" fill="#038E82"/>
<path d="M89.3309 35.798C88.8728 35.9536 88.446 36.1925 88.071 36.503C87.7188 36.7562 87.412 37.0696 87.1642 37.4294C87.0506 37.5955 86.9461 37.7679 86.8513 37.9459V35.6012H84.7408V50.2596H87.1482V42.8812C87.1474 42.3096 87.1957 41.739 87.2926 41.176C87.3839 40.6331 87.5628 40.1095 87.8223 39.6265C88.0787 39.1391 88.4445 38.7205 88.8895 38.405C89.3573 38.0434 89.9116 37.8169 90.4945 37.7491C91.031 37.6885 91.5738 37.7218 92.0994 37.8475V35.6012C91.6476 35.512 91.1865 35.4817 90.7272 35.511C90.2387 35.5463 89.7563 35.6427 89.2908 35.798" fill="#038E82"/>
<path d="M106.728 43.8574C106.469 44.8287 105.981 45.7207 105.308 46.4563C104.628 47.1738 103.738 47.6458 102.772 47.8008C102.411 47.8607 102.046 47.8991 101.681 47.9155C101.264 47.9155 100.878 47.9155 100.557 47.9155H97.0987V33.0194H100.565C100.878 33.0194 101.256 33.0194 101.681 33.0194C102.05 33.0337 102.417 33.0748 102.78 33.1423C103.737 33.2945 104.621 33.7573 105.3 34.4622C105.975 35.207 106.465 36.1068 106.728 37.0857C107.049 38.1896 107.206 39.3365 107.194 40.4879C107.203 41.6279 107.049 42.763 106.736 43.8574H106.728ZM106.688 32.4865C105.641 31.5726 104.35 31.0014 102.981 30.8468C102.518 30.781 102.052 30.7454 101.585 30.7402H94.6913V50.2602H100.589H101.601C102.07 50.2513 102.539 50.2158 103.005 50.1537C104.374 49.9991 105.665 49.4279 106.712 48.514C107.735 47.5874 108.51 46.4112 108.967 45.0954C109.975 42.1325 109.975 38.909 108.967 35.9461C108.509 34.6264 107.733 33.4454 106.712 32.5111" fill="#038E82"/>
<path d="M115.074 38.8073C115.48 38.3172 115.993 37.9313 116.571 37.6807C117.149 37.4301 117.777 37.3217 118.404 37.3644C118.985 37.3243 119.567 37.4252 120.103 37.6589C120.639 37.8925 121.112 38.2524 121.486 38.7089C122.084 39.5781 122.434 40.5998 122.497 41.6603H113.999C114.083 40.6214 114.456 39.6288 115.074 38.7991V38.8073ZM123.733 43.6032H124.952C125.057 42.0719 124.833 40.5356 124.294 39.1024C123.846 37.9203 123.05 36.9092 122.015 36.2084C120.91 35.5043 119.626 35.1505 118.324 35.1919C117.049 35.1589 115.791 35.4881 114.689 36.1429C113.65 36.7955 112.815 37.7367 112.281 38.8565C111.68 40.157 111.383 41.583 111.415 43.0212C111.386 44.4109 111.689 45.787 112.297 47.0301C112.852 48.1428 113.703 49.0722 114.753 49.7109C115.87 50.3665 117.14 50.7008 118.428 50.6783C119.759 50.6963 121.067 50.3266 122.2 49.6126C123.324 48.8911 124.202 47.8313 124.712 46.5792L122.441 45.7594C122.088 46.5474 121.516 47.2118 120.796 47.6696C120.051 48.1289 119.193 48.3594 118.324 48.3336C117.719 48.3601 117.116 48.2462 116.56 48.0006C116.004 47.7549 115.51 47.3839 115.114 46.9153C114.401 45.9637 113.994 44.8093 113.951 43.6114H123.717L123.733 43.6032Z" fill="#038E82"/>
<path d="M130 30.5108H127.633V33.0113H130V30.5108Z" fill="#038E82"/>
<path d="M130 35.6014H127.633V50.2516H130V35.6014Z" fill="#038E82"/>
<path d="M2.23889 39.0446H8.25741V33.0107H11.2346V39.0446H17.2531V41.9304H11.2346V47.9725H8.25741V41.9304H2.23889V39.0446ZM6.01852 30.7234V36.7409H0V44.2013H6.01852V50.2434H13.4574V44.2177H19.4759V36.7409H13.4574V30.7234H6.01852Z" fill="#008E82"/>
<path d="M36.0586 7.31834C35.3396 7.30244 34.629 7.47676 33.9967 7.82411C33.4124 8.1587 32.9271 8.64587 32.5915 9.23494C32.3044 8.64103 31.8466 8.14917 31.2782 7.82411C30.6637 7.48163 29.97 7.31162 29.2689 7.33165C28.5511 7.31166 27.8405 7.48138 27.2071 7.82411C26.7376 8.08815 26.3335 8.45678 26.0251 8.9022V7.57123H24.3179V19.164H26.2221V11.8436C26.1819 11.0969 26.4264 10.3631 26.905 9.79395C27.1397 9.55169 27.4197 9.35925 27.7286 9.22789C28.0376 9.09653 28.3692 9.02887 28.7042 9.02887C29.0392 9.02887 29.3709 9.09653 29.6798 9.22789C29.9887 9.35925 30.2687 9.55169 30.5034 9.79395C30.9699 10.3731 31.2002 11.1112 31.1469 11.8569V19.2039H33.0249V11.8436C33.0037 11.2848 33.1259 10.7299 33.3795 10.2332C33.596 9.842 33.9199 9.52296 34.3119 9.3148C34.6858 9.12068 35.1001 9.02027 35.5201 9.02198C35.85 9.00943 36.1787 9.06822 36.4844 9.19444C36.7901 9.32066 37.0658 9.51142 37.2931 9.75402C37.7697 10.3191 38.0142 11.048 37.976 11.7904V19.2039H39.854V11.3911C39.9089 10.308 39.541 9.24656 38.8296 8.43636C38.4699 8.06485 38.0377 7.77351 37.5605 7.581C37.0834 7.38848 36.5718 7.29902 36.0586 7.31834Z" fill="#038E82"/>
<path d="M51.5016 13.849H52.4554C52.5375 12.6635 52.3661 11.4739 51.9527 10.3617C51.5985 9.4401 50.973 8.65122 50.1612 8.10217C49.2963 7.55779 48.2917 7.2851 47.2741 7.3185C46.2789 7.29377 45.2967 7.55164 44.4386 8.06298C43.6193 8.56313 42.9611 9.29368 42.5439 10.1658C42.0807 11.1753 41.8515 12.2788 41.8737 13.3919C41.8405 14.4907 42.0751 15.5808 42.5568 16.5657C42.9916 17.4272 43.6572 18.1469 44.4772 18.6424C45.3712 19.1436 46.3787 19.4 47.4004 19.3863C48.422 19.3725 49.4224 19.0891 50.303 18.5641C51.1769 18.0029 51.864 17.1883 52.2749 16.2261L50.4447 15.547C50.1666 16.156 49.7185 16.669 49.1559 17.0229C48.5755 17.3843 47.9035 17.5659 47.2225 17.5453C46.7372 17.5767 46.2513 17.4927 45.8038 17.2999C45.3562 17.1072 44.9593 16.811 44.6448 16.4351C44.0885 15.6805 43.7858 14.7649 43.7812 13.8229H51.4114L51.5016 13.849ZM44.735 10.1136C45.0508 9.73927 45.4479 9.44423 45.8952 9.25161C46.3424 9.05899 46.8277 8.97402 47.3128 9.00338C47.7706 8.96558 48.2307 9.03955 48.6546 9.21908C49.0784 9.3986 49.4536 9.67846 49.7487 10.0352C50.2169 10.7123 50.4892 11.5085 50.535 12.334H43.8972C43.96 11.5276 44.2509 10.7567 44.735 10.1136Z" fill="#038E82"/>
<path d="M62.0563 7.49866V13.6221C62.0639 14.2125 61.9941 14.8011 61.849 15.3698C61.7305 15.8241 61.5271 16.2466 61.2518 16.6105C61.0037 16.9333 60.6909 17.189 60.3376 17.3576C59.9493 17.5233 59.5353 17.6048 59.1186 17.5977C58.6301 17.6191 58.1456 17.4946 57.7168 17.2375C57.3503 17.0101 57.0469 16.6782 56.8392 16.277C56.6179 15.8622 56.4575 15.4121 56.3638 14.9429C56.2752 14.4192 56.2303 13.8879 56.2297 13.3553V7.49866H54.4866V13.9556C54.4931 14.4027 54.5298 14.8486 54.5964 15.2897C54.672 15.7943 54.803 16.287 54.9864 16.7572C55.1709 17.2436 55.4261 17.6941 55.7421 18.0913C56.0845 18.4956 56.4995 18.818 56.9611 19.0385C57.519 19.2819 58.1159 19.3999 58.7164 19.3854C59.5427 19.4067 60.3592 19.1856 61.0811 18.745C61.5575 18.4506 61.9727 18.0508 62.3001 17.571V19.0919H63.8115V7.49866H62.0563Z" fill="#038E82"/>
<mask id="path-14-inside-1_280_2185" fill="white">
<path fill-rule="evenodd" clip-rule="evenodd" d="M62.8973 3.475H25.4149C19.962 3.475 15.5415 7.89677 15.5415 13.3513V23.4105H62.8973C68.3318 23.4105 72.7707 18.9158 72.7707 13.4427C72.7707 7.96966 68.3318 3.475 62.8973 3.475ZM25.4149 1.64606C18.9522 1.64606 13.7131 6.88667 13.7131 13.3513V25.2394H62.8973C69.3601 25.2394 74.5992 19.9074 74.5992 13.4427C74.5992 6.97812 69.3601 1.64606 62.8973 1.64606H25.4149Z"/>
</mask>
<path d="M15.5415 23.4105H5.54149V33.4105H15.5415V23.4105ZM13.7131 25.2394H3.71308V35.2394H13.7131V25.2394ZM25.4149 13.475H62.8973V-6.525H25.4149V13.475ZM25.5415 13.3513C25.5415 13.3465 25.5418 13.3522 25.5392 13.3651C25.5367 13.3773 25.5327 13.39 25.5278 13.4016C25.5186 13.4234 25.5095 13.4337 25.5054 13.4377C25.5014 13.4418 25.4908 13.4512 25.4682 13.4608C25.4563 13.4658 25.4432 13.4699 25.4304 13.4725C25.417 13.4753 25.4107 13.475 25.4149 13.475V-6.525C14.4364 -6.525 5.54149 2.37668 5.54149 13.3513H25.5415ZM25.5415 23.4105V13.3513H5.54149V23.4105H25.5415ZM62.8973 13.4105H15.5415V33.4105H62.8973V13.4105ZM62.7707 13.4427C62.7707 13.4494 62.7702 13.4484 62.7714 13.4426C62.7724 13.4375 62.7739 13.4334 62.7747 13.4314C62.7755 13.4295 62.7724 13.4366 62.7641 13.4449C62.7559 13.4532 62.7596 13.4458 62.7868 13.4341C62.8014 13.4279 62.8206 13.4214 62.8431 13.4167C62.8662 13.4119 62.8856 13.4105 62.8973 13.4105V33.4105C73.9527 33.4105 82.7707 24.3401 82.7707 13.4427H62.7707ZM62.8973 13.475C62.8856 13.475 62.8662 13.4736 62.8431 13.4688C62.8206 13.4641 62.8014 13.4576 62.7868 13.4514C62.7596 13.4397 62.7559 13.4323 62.7641 13.4406C62.7724 13.4489 62.7755 13.456 62.7747 13.4541C62.7739 13.4521 62.7724 13.448 62.7714 13.4429C62.7702 13.4371 62.7707 13.4361 62.7707 13.4427H82.7707C82.7707 2.5454 73.9527 -6.525 62.8973 -6.525V13.475ZM23.7131 13.3513C23.7131 12.4068 24.4778 11.6461 25.4149 11.6461V-8.35394C13.4266 -8.35394 3.71308 1.36658 3.71308 13.3513H23.7131ZM64.5992 13.4427C64.5992 14.4888 63.7335 15.2394 62.8973 15.2394V35.2394C74.9866 35.2394 84.5992 25.326 84.5992 13.4427H64.5992ZM62.8973 11.6461C63.7335 11.6461 64.5992 12.3967 64.5992 13.4427H84.5992C84.5992 1.55952 74.9866 -8.35394 62.8973 -8.35394V11.6461ZM25.4149 11.6461H62.8973V-8.35394H25.4149V11.6461ZM23.7131 25.2394V13.3513H3.71308V25.2394H23.7131ZM62.8973 15.2394H13.7131V35.2394H62.8973V15.2394Z" fill="#038E82" mask="url(#path-14-inside-1_280_2185)"/>
</g>
<defs>
<clipPath id="clip0_280_2185">
<rect width="130" height="50.6618" fill="white"/>
</clipPath>
</defs>
</svg>
